<svg xmlns="http://www.w3.org/2000/svg" width="219" height="51" viewBox="0 0 219 51" fill="none"><path fill-rule="evenodd" clip-rule="evenodd" d="M37.3546 15.9778C37.729 15.813 38.166 15.983 38.3307 16.3573C39.4122 18.8153 40.001 21.5331 40.001 24.3783C40.001 26.902 39.5093 29.3239 38.6598 31.5459C38.5137 31.9279 38.0856 32.1192 37.7036 31.9731C37.3216 31.827 37.1303 31.3989 37.2763 31.0169C38.0659 28.9519 38.5199 26.7088 38.5199 24.3783C38.5199 21.7387 37.9739 19.224 36.975 16.9538C36.8103 16.5795 36.9802 16.1425 37.3546 15.9778Z" fill="white"></path><path fill-rule="evenodd" clip-rule="evenodd" d="M18.8828 23.4642C18.8828 23.0552 19.2144 22.7236 19.6234 22.7236H19.6549C20.0639 22.7236 20.3954 23.0552 20.3954 23.4642V23.7479C20.3954 24.1569 20.0639 24.4884 19.6549 24.4884H19.6234C19.2144 24.4884 18.8828 24.1569 18.8828 23.7479V23.4642Z" fill="white"></path><path fill-rule="evenodd" clip-rule="evenodd" d="M18.8828 23.7479C18.8828 23.3389 19.2144 23.0073 19.6234 23.0073H19.6549C19.8696 23.0073 20.0737 23.1005 20.2143 23.2627C20.355 23.4248 20.4184 23.6401 20.388 23.8526C20.3649 24.014 20.3639 24.1532 20.3639 24.3783C20.3639 24.7873 20.0324 25.1188 19.6234 25.1188C19.2144 25.1188 18.8828 24.7873 18.8828 24.3783C18.8828 24.373 18.8828 24.3678 18.8828 24.3625C18.8828 24.352 18.8828 24.3413 18.8828 24.3307V23.7479Z" fill="white"></path><path fill-rule="evenodd" clip-rule="evenodd" d="M0.305605 4.66334C0.448178 4.51798 0.64431 4.43773 0.847885 4.44147C4.41854 4.50699 7.72648 5.52308 10.6043 7.22363L10.6078 7.22566L10.6078 7.22567C14.2709 9.41702 17.1842 12.7219 18.8542 16.7167C18.9342 16.9081 18.9302 17.1244 18.8432 17.3127C18.7563 17.5011 18.5942 17.6444 18.3966 17.7076L18.1709 17.0023C18.3966 17.7076 18.3962 17.7078 18.3957 17.7079L18.3946 17.7083L18.3918 17.7091L18.3841 17.7116L18.3601 17.7188C18.3403 17.7248 18.313 17.7327 18.2785 17.7422C18.2096 17.7613 18.1119 17.7867 17.9881 17.8149C17.7409 17.8714 17.3885 17.9395 16.9534 17.9905C16.0847 18.0923 14.8754 18.1272 13.5089 17.859C10.7428 17.316 7.42083 15.5455 4.99791 10.815C4.81146 10.451 4.95541 10.0048 5.31943 9.81832C5.68345 9.63187 6.1297 9.77582 6.31615 10.1398C8.52683 14.4559 11.4618 15.9478 13.7942 16.4057C14.977 16.6378 16.0274 16.6078 16.781 16.5195C16.9035 16.5051 17.0179 16.4892 17.1234 16.4728C15.5371 13.1418 12.9929 10.3788 9.84917 8.49775C7.39732 7.04927 4.6171 6.14003 1.62297 5.95449C1.86635 8.8566 2.82465 11.5713 4.27058 13.9352C7.45456 19.0892 13.0915 22.5723 19.5751 22.7238C19.984 22.7333 20.3077 23.0725 20.2982 23.4814C20.2886 23.8903 19.9494 24.214 19.5405 24.2045C12.5337 24.0408 6.44523 20.2746 3.00962 14.7122L3.00796 14.7095C1.30837 11.9313 0.225545 8.6884 0.0942774 5.20982C0.0865995 5.00635 0.163033 4.8087 0.305605 4.66334Z" fill="white"></path><path fill-rule="evenodd" clip-rule="evenodd" d="M29.067 6.99181C31.9729 5.39193 35.2786 4.44135 38.849 4.44135H39.2272C39.4285 4.44135 39.6211 4.52325 39.7607 4.66821C39.9003 4.81318 39.9749 5.00871 39.9673 5.20982C39.836 8.6884 38.7532 11.9313 37.0536 14.7095L37.0521 14.7119C33.5191 20.4366 27.234 24.2362 20.0309 24.2362H19.6527C19.4503 24.2362 19.2568 24.1534 19.117 24.007C18.9773 23.8607 18.9035 23.6635 18.9129 23.4614C19.2403 16.3901 23.2347 10.2684 29.0615 6.9949L29.067 6.99181ZM29.7841 8.28773C24.6062 11.1979 20.9931 16.5371 20.4448 22.7506C26.9371 22.6085 32.5833 19.1321 35.7911 13.9351C37.2415 11.5637 38.2013 8.83934 38.4409 5.92692C35.2965 5.99602 32.3765 6.86102 29.7841 8.28773Z" fill="white"></path><path fill-rule="evenodd" clip-rule="evenodd" d="M18.8828 23.8739C18.8828 23.4649 19.2144 23.1334 19.6234 23.1334H19.6549C20.0639 23.1334 20.3954 23.4649 20.3954 23.8739V24.1576C20.3954 24.5666 20.0639 24.8981 19.6549 24.8981H19.6234C19.2144 24.8981 18.8828 24.5666 18.8828 24.1576V23.8739Z" fill="white"></path><path fill-rule="evenodd" clip-rule="evenodd" d="M19.6234 22.5029C20.0324 22.5029 20.3639 22.8345 20.3639 23.2435C20.3639 23.4686 20.3649 23.6078 20.388 23.7692C20.4184 23.9817 20.355 24.1969 20.2143 24.3591C20.0737 24.5213 19.8696 24.6144 19.6549 24.6144H19.6234C19.2144 24.6144 18.8828 24.2829 18.8828 23.8739V23.2918C18.8828 23.2811 18.8828 23.2698 18.8828 23.2593C18.8828 23.254 18.8828 23.2487 18.8828 23.2435C18.8828 22.8345 19.2144 22.5029 19.6234 22.5029Z" fill="white"></path><path fill-rule="evenodd" clip-rule="evenodd" d="M20.1508 23.6088C20.2943 23.7558 20.3703 23.9559 20.3606 24.1612C20.0332 31.0696 16.2021 37.0591 10.607 40.3966L10.6043 40.3981C7.72648 42.0987 4.41854 43.1148 0.847885 43.1803C0.64431 43.184 0.448178 43.1038 0.305605 42.9584C0.163033 42.8131 0.0865995 42.6154 0.0942774 42.4119C0.225545 38.9334 1.30836 35.6905 3.00796 32.9123L3.0086 32.9112C6.44529 27.3144 12.5669 23.5494 19.6037 23.3858C19.8091 23.381 20.0073 23.4618 20.1508 23.6088ZM4.27101 33.6858C2.82484 36.05 1.86637 38.7649 1.62297 41.6673C4.61725 41.4817 7.3976 40.5724 9.84953 39.1238C14.8131 36.1625 18.2734 30.9519 18.825 24.9028C12.6513 25.3125 7.32069 28.7195 4.27101 33.6858Z" fill="white"></path><path fill-rule="evenodd" clip-rule="evenodd" d="M19.166 24.1261C19.166 23.7171 19.4976 23.3856 19.9066 23.3856H20.0326C27.2358 23.3856 33.5529 27.2168 37.0544 32.9108L37.0553 32.9123C38.7576 35.6948 39.8051 38.9358 39.9687 42.405C39.9783 42.6072 39.9046 42.8045 39.7648 42.951C39.6251 43.0975 39.4315 43.1804 39.229 43.1804H38.8507C35.2869 43.1804 31.9459 42.2646 29.0608 40.6255C25.0702 38.3684 21.9268 34.8011 20.256 30.4766C20.1086 30.0951 20.2984 29.6663 20.6799 29.5189C21.0614 29.3715 21.4901 29.5613 21.6375 29.9428C23.1818 33.9396 26.0902 37.2438 29.7905 39.3366L29.7918 39.3373C32.3426 40.7867 35.2852 41.627 38.4361 41.6949C38.1759 38.7763 37.2398 36.0522 35.7923 33.6858C32.5482 28.411 26.6984 24.8667 20.0326 24.8667H19.9066C19.4976 24.8667 19.166 24.5351 19.166 24.1261Z" fill="white"></path><path fill-rule="evenodd" clip-rule="evenodd" d="M2.64637 15.9778C3.02073 16.1425 3.19068 16.5795 3.02596 16.9538C2.02708 19.224 1.4811 21.7387 1.4811 24.3783C1.4811 26.7462 1.90575 28.9577 2.6931 31.0169C2.83917 31.3989 2.64789 31.827 2.26587 31.9731C1.88385 32.1192 1.45575 31.9279 1.30968 31.5459C0.457942 29.3182 0 26.9276 0 24.3783C0 21.5331 0.588772 18.8153 1.67029 16.3573C1.83501 15.983 2.27201 15.813 2.64637 15.9778Z" fill="white"></path><path fill-rule="evenodd" clip-rule="evenodd" d="M19.5911 5.48116C17.2541 5.48116 15.0112 5.90603 12.9525 6.69316C12.5705 6.83923 12.1424 6.64795 11.9963 6.26593C11.8502 5.88391 12.0415 5.45581 12.4235 5.30974C14.6517 4.45778 17.074 4.00006 19.5911 4.00006C22.4362 4.00006 25.1541 4.58883 27.612 5.67035C27.9864 5.83507 28.1564 6.27207 27.9916 6.64643C27.8269 7.02079 27.3899 7.19074 27.0156 7.02602C24.7454 6.02715 22.2307 5.48116 19.5911 5.48116Z" fill="white"></path><path fill-rule="evenodd" clip-rule="evenodd" d="M27.9916 41.3536C28.1564 41.7279 27.9864 42.1649 27.612 42.3296C25.1541 43.4112 22.4362 43.9999 19.5911 43.9999C17.0674 43.9999 14.6455 43.5083 12.4235 42.6587C12.0415 42.5127 11.8502 42.0846 11.9963 41.7025C12.1424 41.3205 12.5705 41.1292 12.9525 41.2753C15.0174 42.0648 17.2606 42.5188 19.5911 42.5188C22.2307 42.5188 24.7454 41.9728 27.0156 40.974C27.3899 40.8093 27.8269 40.9792 27.9916 41.3536Z" fill="white"></path><path d="M62.596 26.488V37H59.32V11.8H67.744C69.136 11.8 70.348 12.004 71.38 12.412C72.412 12.82 73.264 13.372 73.936 14.068C74.632 14.74 75.148 15.544 75.484 16.48C75.82 17.392 75.988 18.352 75.988 19.36C75.988 20.416 75.796 21.412 75.412 22.348C75.028 23.26 74.452 24.076 73.684 24.796C72.94 25.492 72.004 26.044 70.876 26.452C69.748 26.86 68.452 27.064 66.988 27.064C66.124 27.064 65.332 27.016 64.612 26.92C63.892 26.8 63.22 26.656 62.596 26.488ZM62.596 13.384V25.012C63.1 25.204 63.664 25.336 64.288 25.408C64.912 25.456 65.596 25.48 66.34 25.48C67.42 25.48 68.344 25.3 69.112 24.94C69.88 24.58 70.516 24.112 71.02 23.536C71.524 22.96 71.884 22.324 72.1 21.628C72.34 20.908 72.46 20.2 72.46 19.504C72.46 18.784 72.328 18.064 72.064 17.344C71.824 16.6 71.452 15.94 70.948 15.364C70.444 14.764 69.808 14.284 69.04 13.924C68.272 13.564 67.384 13.384 66.376 13.384H62.596ZM78.1581 11.8H81.2181V21.448H81.3621L81.7581 20.944C82.5741 20.032 83.4381 19.42 84.3501 19.108C85.2861 18.772 86.1741 18.604 87.0141 18.604C87.6381 18.604 88.2861 18.688 88.9581 18.856C89.6541 19.024 90.2901 19.348 90.8661 19.828C91.4421 20.308 91.9221 20.98 92.3061 21.844C92.6901 22.684 92.8821 23.776 92.8821 25.12V37H89.8221V25.948C89.8221 25.228 89.7741 24.532 89.6781 23.86C89.6061 23.188 89.4381 22.6 89.1741 22.096C88.9101 21.592 88.5261 21.196 88.0221 20.908C87.5421 20.596 86.8941 20.44 86.0781 20.44C84.9261 20.44 84.0261 20.68 83.3781 21.16C82.7301 21.616 82.2381 22.168 81.9021 22.816C81.5901 23.464 81.3981 24.136 81.3261 24.832C81.2541 25.528 81.2181 26.116 81.2181 26.596V37H78.1581V11.8ZM103.838 32.788H103.982L109.634 19H111.398L102.686 40.42C102.422 41.068 102.146 41.716 101.858 42.364C101.57 43.036 101.234 43.636 100.85 44.164C100.466 44.716 100.022 45.16 99.5182 45.496C99.0142 45.832 98.4262 46 97.7542 46C97.2742 46 96.7582 45.904 96.2062 45.712C95.6542 45.52 95.1502 45.22 94.6942 44.812L96.2782 41.824C96.4942 42.304 96.7942 42.664 97.1782 42.904C97.5862 43.168 98.0062 43.3 98.4382 43.3C98.8942 43.3 99.2902 43.132 99.6262 42.796C99.9862 42.46 100.274 42.016 100.49 41.464L102.398 36.784L94.3342 19H97.6102L103.838 32.788ZM124.679 23.104H122.627C122.627 22.792 122.543 22.456 122.375 22.096C122.207 21.736 121.943 21.412 121.583 21.124C121.223 20.812 120.779 20.56 120.251 20.368C119.723 20.152 119.099 20.044 118.379 20.044C117.659 20.044 117.059 20.152 116.579 20.368C116.099 20.56 115.715 20.812 115.427 21.124C115.139 21.412 114.935 21.736 114.815 22.096C114.695 22.432 114.635 22.756 114.635 23.068C114.635 23.812 114.899 24.388 115.427 24.796C115.979 25.204 116.663 25.552 117.479 25.84C118.295 26.128 119.171 26.404 120.107 26.668C121.067 26.932 121.955 27.28 122.771 27.712C123.587 28.12 124.259 28.672 124.787 29.368C125.339 30.064 125.615 30.988 125.615 32.14C125.615 33.724 125.051 35.008 123.923 35.992C122.819 36.952 121.163 37.432 118.955 37.432C117.731 37.432 116.651 37.288 115.715 37C114.803 36.688 114.023 36.28 113.375 35.776C112.751 35.272 112.283 34.708 111.971 34.084C111.659 33.436 111.503 32.776 111.503 32.104H113.843C113.843 32.392 113.927 32.752 114.095 33.184C114.287 33.616 114.587 34.048 114.995 34.48C115.427 34.888 115.967 35.248 116.615 35.56C117.287 35.848 118.103 35.992 119.063 35.992C119.831 35.992 120.467 35.896 120.971 35.704C121.475 35.488 121.871 35.236 122.159 34.948C122.447 34.636 122.639 34.3 122.735 33.94C122.855 33.58 122.915 33.232 122.915 32.896C122.915 32.104 122.651 31.48 122.123 31.024C121.595 30.568 120.935 30.196 120.143 29.908C119.351 29.596 118.487 29.32 117.551 29.08C116.639 28.816 115.787 28.48 114.995 28.072C114.203 27.664 113.543 27.124 113.015 26.452C112.487 25.78 112.223 24.868 112.223 23.716C112.223 22.876 112.379 22.144 112.691 21.52C113.003 20.872 113.423 20.332 113.951 19.9C114.503 19.468 115.139 19.144 115.859 18.928C116.603 18.712 117.395 18.604 118.235 18.604C119.123 18.604 119.951 18.724 120.719 18.964C121.511 19.18 122.195 19.492 122.771 19.9C123.371 20.284 123.839 20.752 124.175 21.304C124.511 21.856 124.679 22.456 124.679 23.104ZM129.844 19H132.904V37H129.844V19ZM129.412 13.312C129.412 12.784 129.604 12.328 129.988 11.944C130.372 11.56 130.828 11.368 131.356 11.368C131.884 11.368 132.34 11.56 132.724 11.944C133.108 12.328 133.3 12.784 133.3 13.312C133.3 13.84 133.108 14.296 132.724 14.68C132.34 15.064 131.884 15.256 131.356 15.256C130.828 15.256 130.372 15.064 129.988 14.68C129.604 14.296 129.412 13.84 129.412 13.312ZM155.534 28.036C155.534 29.284 155.318 30.484 154.886 31.636C154.454 32.764 153.83 33.76 153.014 34.624C152.222 35.488 151.25 36.172 150.098 36.676C148.97 37.18 147.698 37.432 146.282 37.432C144.842 37.432 143.534 37.18 142.358 36.676C141.206 36.148 140.222 35.452 139.406 34.588C138.614 33.724 137.99 32.728 137.534 31.6C137.102 30.448 136.886 29.26 136.886 28.036C136.886 26.788 137.102 25.6 137.534 24.472C137.99 23.32 138.614 22.312 139.406 21.448C140.222 20.584 141.206 19.9 142.358 19.396C143.534 18.868 144.842 18.604 146.282 18.604C147.698 18.604 148.97 18.868 150.098 19.396C151.25 19.9 152.222 20.584 153.014 21.448C153.83 22.312 154.454 23.32 154.886 24.472C155.318 25.6 155.534 26.788 155.534 28.036ZM152.114 28.036C152.114 26.356 151.934 25 151.574 23.968C151.214 22.912 150.746 22.096 150.17 21.52C149.594 20.944 148.958 20.56 148.262 20.368C147.566 20.152 146.894 20.044 146.246 20.044C145.598 20.044 144.926 20.152 144.23 20.368C143.534 20.56 142.886 20.944 142.286 21.52C141.71 22.096 141.23 22.912 140.846 23.968C140.486 25 140.306 26.356 140.306 28.036C140.306 29.692 140.486 31.048 140.846 32.104C141.23 33.136 141.71 33.94 142.286 34.516C142.886 35.092 143.534 35.488 144.23 35.704C144.926 35.896 145.598 35.992 146.246 35.992C146.894 35.992 147.566 35.896 148.262 35.704C148.958 35.488 149.594 35.092 150.17 34.516C150.746 33.94 151.214 33.136 151.574 32.104C151.934 31.048 152.114 29.692 152.114 28.036ZM202.66 50.6C201.113 50.6 199.513 50.3867 197.86 49.96C196.233 49.5333 194.62 48.9867 193.02 48.32C191.42 47.68 189.927 47 188.54 46.28C187.767 45.88 186.953 45.4667 186.1 45.04C185.247 44.6133 184.433 44.08 183.66 43.44C182.993 42.8533 182.18 42.28 181.22 41.72C180.26 41.1867 179.22 40.56 178.1 39.84C176.847 39.04 175.62 38.28 174.42 37.56C173.22 36.84 171.913 36.3067 170.5 35.96C169.593 35.72 168.647 35.6 167.66 35.6C166.673 35.6 165.767 35.6533 164.94 35.76C164.113 35.8667 163.273 36.2 162.42 36.76C162.287 36.84 161.993 37 161.54 37.24C161.087 37.5067 160.62 37.76 160.14 38C159.687 38.24 159.367 38.36 159.18 38.36L158.78 36.4L157.5 37.28C157.393 36.5867 157.487 35.9333 157.78 35.32C158.073 34.68 158.46 34.0933 158.94 33.56C159.42 33.0267 159.9 32.5733 160.38 32.2C160.86 31.8 161.22 31.5067 161.46 31.32C163.46 29.6133 165.287 27.7467 166.94 25.72C168.62 23.6933 170.273 21.6667 171.9 19.64C172.673 18.7067 173.553 17.8267 174.54 17C175.553 16.1467 176.393 15.2667 177.06 14.36C176.553 14.3867 175.993 14.4 175.38 14.4C174.793 14.3733 174.167 14.3067 173.5 14.2C172.78 14.0667 171.94 13.9333 170.98 13.8C170.02 13.64 169.073 13.56 168.14 13.56C167.793 13.56 167.46 13.56 167.14 13.56C166.847 13.56 166.593 13.6133 166.38 13.72C165.74 13.9867 165.287 14.32 165.02 14.72C164.753 15.12 164.66 15.7067 164.74 16.48C164.793 16.72 164.82 16.9467 164.82 17.16C164.847 17.3467 164.873 17.5067 164.9 17.64C164.953 17.9067 164.953 18 164.9 17.92C164.847 17.84 164.713 17.72 164.5 17.56L163.26 19.4C163.073 19.1867 162.86 19.0133 162.62 18.88C162.38 18.72 162.233 18.4667 162.18 18.12C162.1 17.7467 162.06 17.4133 162.06 17.12C162.06 16.8267 162.06 16.6267 162.06 16.52C161.953 15.0267 162.207 13.92 162.82 13.2C163.46 12.4533 164.327 11.8 165.42 11.24C166.033 10.92 166.927 10.76 168.1 10.76C169.033 10.76 170.02 10.8267 171.06 10.96C172.127 11.0667 173.073 11.2133 173.9 11.4C174.407 11.48 174.953 11.5333 175.54 11.56C176.127 11.56 176.753 11.56 177.42 11.56C177.633 11.56 177.86 11.4933 178.1 11.36C178.367 11.2267 178.633 11.1733 178.9 11.2H179.06C179.273 10.9867 179.5 10.7867 179.74 10.6C179.98 10.4133 180.233 10.24 180.5 10.08C180.873 9.86666 181.167 9.66666 181.38 9.48C181.593 9.29333 181.873 9.2 182.22 9.2L182.7 9.92C182.753 9.92 182.767 9.93333 182.74 9.96C182.74 9.96 182.753 9.96 182.78 9.96L183.74 10.36C183.82 10.6267 183.847 10.8 183.82 10.88C183.82 10.96 183.833 11.0267 183.86 11.08C184.047 12.0933 184.007 12.8133 183.74 13.24C183.5 13.6667 183.153 13.92 182.7 14C182.247 14.0533 181.793 14.08 181.34 14.08C181.153 14.08 180.967 14.1067 180.78 14.16C180.593 14.1867 180.393 14.2267 180.18 14.28C180.153 14.3867 180.113 14.4933 180.06 14.6C180.007 14.68 179.953 14.7733 179.9 14.88C179.393 15.8667 178.78 16.7333 178.06 17.48C177.367 18.2267 176.647 18.92 175.9 19.56C175.18 20.2 174.513 20.8933 173.9 21.64C172.193 23.72 170.513 25.7733 168.86 27.8C167.207 29.8 165.353 31.6667 163.3 33.4C163.327 33.4 163.233 33.48 163.02 33.64C163.713 33.4 164.42 33.2267 165.14 33.12C165.86 32.9867 166.673 32.92 167.58 32.92C168.033 32.92 168.54 32.9467 169.1 33C169.66 33.0267 170.287 33.12 170.98 33.28C172.5 33.6 173.967 34.1467 175.38 34.92C176.793 35.6667 178.193 36.48 179.58 37.36C180.673 38.0533 181.713 38.68 182.7 39.24C183.687 39.8267 184.593 40.4667 185.42 41.16C186.007 41.6667 186.66 42.12 187.38 42.52C188.127 42.92 188.9 43.3067 189.7 43.68C191.087 44.3467 192.5 45 193.94 45.64C195.38 46.3067 196.82 46.8533 198.26 47.28C199.727 47.7067 201.167 47.92 202.58 47.92C203.087 47.92 203.607 47.8133 204.14 47.6C204.673 47.3867 205.113 47.12 205.46 46.8C205.807 46.48 205.953 46.1733 205.9 45.88C205.873 45.7467 205.86 45.6667 205.86 45.64C205.887 45.64 205.9 45.6267 205.9 45.6C205.82 45.44 205.727 45.2533 205.62 45.04C205.54 44.8533 205.46 44.6267 205.38 44.36L208.02 43.6C208.073 43.7333 208.153 43.9467 208.26 44.24C208.393 44.5333 208.487 44.8533 208.54 45.2C208.593 45.52 208.607 45.8133 208.58 46.08C208.553 46.3733 208.513 46.6267 208.46 46.84L208.5 46.88C208.207 48.0267 207.513 48.9333 206.42 49.6C205.327 50.2667 204.073 50.6 202.66 50.6ZM182.46 9.96L182.5 9.92H182.46V9.96ZM185.794 28.705C185.794 29.8483 185.981 30.8867 186.354 31.82C186.739 32.7417 187.317 33.4767 188.087 34.025C188.868 34.5733 189.843 34.8475 191.009 34.8475C192.164 34.8475 193.156 34.5792 193.984 34.0425C194.824 33.5058 195.361 32.73 195.594 31.715H198.657C198.435 32.94 197.945 33.9725 197.187 34.8125C196.428 35.6525 195.513 36.2883 194.439 36.72C193.366 37.14 192.246 37.35 191.079 37.35C189.388 37.35 187.9 36.9825 186.617 36.2475C185.333 35.5125 184.33 34.4567 183.607 33.08C182.883 31.7033 182.522 30.0525 182.522 28.1275C182.522 26.2258 182.848 24.5575 183.502 23.1225C184.155 21.6875 185.1 20.5675 186.337 19.7625C187.585 18.9575 189.084 18.555 190.834 18.555C192.538 18.555 193.978 18.9225 195.157 19.6575C196.335 20.3925 197.228 21.4308 197.834 22.7725C198.453 24.1025 198.762 25.6833 198.762 27.515V28.705H185.794ZM185.812 26.5175H195.647C195.647 25.4792 195.472 24.5458 195.122 23.7175C194.772 22.8775 194.235 22.2183 193.512 21.74C192.8 21.25 191.902 21.005 190.817 21.005C189.685 21.005 188.746 21.2792 187.999 21.8275C187.264 22.3642 186.71 23.0583 186.337 23.91C185.975 24.75 185.8 25.6192 185.812 26.5175ZM202.156 37V18.905H205.288V21.53C205.58 21.0283 205.983 20.5558 206.496 20.1125C207.021 19.6692 207.651 19.3133 208.386 19.045C209.133 18.7767 209.99 18.6425 210.958 18.6425C212.102 18.6425 213.152 18.87 214.108 19.325C215.077 19.78 215.847 20.4917 216.418 21.46C217.002 22.4167 217.293 23.6533 217.293 25.17V37H214.056V25.485C214.056 24.0733 213.683 23.0292 212.936 22.3525C212.201 21.6642 211.244 21.32 210.066 21.32C209.249 21.32 208.485 21.4542 207.773 21.7225C207.062 21.9792 206.484 22.3758 206.041 22.9125C205.598 23.4375 205.376 24.1025 205.376 24.9075V37H202.156Z" fill="white"></path></svg>