<?xml version="1.0" encoding="UTF-8"?>
<svg xmlns="http://www.w3.org/2000/svg" width="60" height="60" viewBox="0 0 60 60" fill="none">
  <g clip-path="url(#clip0_15772_9050)">
    <path d="M45.2909 59.9998C44.7639 59.6932 44.6362 59.2366 44.7416 58.6585C44.831 58.1667 44.8629 57.6622 44.9268 57.1033C40.1142 57.1352 35.5123 56.2442 30.9711 54.4431C30.9711 54.9732 30.9839 55.4107 30.9679 55.8482C30.9455 56.4231 30.6294 56.7648 30.1376 56.7775C29.6202 56.7903 29.2817 56.439 29.2625 55.8323C29.2466 55.2478 29.2849 54.6634 29.2402 54.0822C29.2274 53.9034 29.0613 53.6511 28.9017 53.584C25.8998 52.3002 22.7701 51.4699 19.5223 51.141C18.0341 50.9909 16.5331 50.9749 15.0386 50.9046C14.7512 50.8919 14.4605 50.9015 14.1029 50.9015C14.2114 51.5497 14.3104 52.1182 14.4063 52.6898C14.4414 52.9006 14.4893 53.1114 14.5053 53.3221C14.5468 53.8587 14.2753 54.2291 13.8059 54.2994C13.3236 54.3728 12.9404 54.1237 12.8286 53.6032C12.6562 52.7856 12.5189 51.9617 12.3464 51.0356C11.283 51.1921 10.2291 51.3134 9.18803 51.5082C6.63959 51.9841 4.17419 52.7345 1.7982 53.7852C1.69282 53.8331 1.58424 53.881 1.47566 53.9161C0.948725 54.095 0.501631 53.9225 0.306825 53.4659C0.115214 53.0156 0.290858 52.5333 0.811403 52.3258C2.20059 51.7797 3.58019 51.1665 5.01409 50.7801C7.29426 50.1638 9.61915 49.7135 12.0111 49.1706C11.8993 48.5159 11.7684 47.7207 11.6279 46.9287C10.7081 41.7456 9.78202 36.5625 8.87187 31.3762C8.8048 30.9866 8.68984 30.7886 8.25552 30.6992C6.76733 30.3862 5.76776 29.4729 5.47715 27.9751C4.8576 24.772 4.30832 21.5529 3.73667 18.3402C2.92871 13.8054 2.13033 9.27063 1.31917 4.73902C0.999821 2.94745 1.72475 1.35388 3.22571 0.612979C4.71389 -0.121532 6.5342 0.201014 7.57849 1.48481C7.9681 1.96384 8.28745 2.58339 8.39923 3.18377C9.2519 7.72816 10.0439 12.2853 10.855 16.8361C11.4203 20.0105 11.976 23.188 12.5476 26.3624C12.8478 28.0326 12.2506 29.4026 10.8327 30.316C10.6826 30.4118 10.5165 30.68 10.5421 30.8365C11.6087 36.9202 12.7009 43.0039 13.7867 49.0843C13.7899 49.1035 13.7995 49.1195 13.8314 49.2025C19.0944 48.9853 24.2136 49.8157 29.2178 51.8244C29.2338 51.5976 29.2562 51.4188 29.2562 51.2368C29.2593 45.0509 29.253 38.8651 29.2657 32.6792C29.2657 32.28 29.1412 32.1171 28.7707 31.9734C27.3496 31.4241 26.4938 30.1595 26.4938 28.6266C26.4874 20.729 26.4842 12.8314 26.4969 4.93063C26.5001 2.89316 28.0745 1.32514 30.0705 1.30917C32.0824 1.29001 33.7335 2.88038 33.7367 4.91147C33.7494 12.8282 33.7526 20.7482 33.7335 28.6649C33.7303 30.2649 32.9 31.3826 31.4214 31.9862C31.0733 32.1267 30.9679 32.296 30.9679 32.6632C30.9807 39.1205 30.9775 45.581 30.9711 52.0384C30.9711 52.3801 31.0222 52.6004 31.3926 52.7505C35.6592 54.4846 40.0822 55.3884 44.6905 55.3596C44.8214 55.3596 44.9555 55.3373 45.1312 55.3181C45.3004 53.8587 45.4697 52.4152 45.6358 50.9717C46.1308 46.6636 46.6226 42.3588 47.1144 38.0507C47.2134 37.1821 47.2996 36.3102 47.405 35.4416C47.4401 35.1606 47.389 34.9977 47.1048 34.8476C45.5623 34.0269 44.9396 32.7431 45.1408 30.9802C45.8242 25.0115 46.4948 19.0428 47.175 13.0741C47.3858 11.2187 47.5742 9.36324 47.8425 7.51739C48.1235 5.5853 49.9151 4.23444 51.7577 4.47715C53.824 4.75179 55.2163 6.38368 55.0056 8.39241C54.6575 11.7552 54.2583 15.1148 53.8751 18.4776C53.428 22.3992 52.9777 26.3177 52.5274 30.2393C52.4571 30.8365 52.3933 31.4369 52.3134 32.0341C52.1027 33.5925 51.1159 34.739 49.6085 35.1127C49.254 35.2021 49.1582 35.3458 49.1199 35.6875C48.4045 42.0043 47.6732 48.3179 46.9483 54.6347C46.9259 54.8263 46.9259 55.0179 46.9068 55.3373C48.2161 55.1616 49.484 55.0339 50.7326 54.8199C53.4216 54.3537 56.0179 53.5585 58.5185 52.4599C59.253 52.1373 59.5148 52.2172 59.9939 52.8783C59.9939 53.0731 59.9939 53.2679 59.9939 53.4627C59.7543 53.6479 59.5404 53.8938 59.2721 54.012C56.4522 55.2606 53.527 56.158 50.4771 56.6179C49.2317 56.8063 47.9798 56.9372 46.6832 57.1001C46.6098 57.6877 46.5044 58.2817 46.4725 58.8757C46.4469 59.3643 46.2617 59.7252 45.8689 59.9966C45.6805 59.9998 45.4857 59.9998 45.2909 59.9998ZM48.7271 33.5095C49.765 33.5127 50.5027 32.7973 50.6368 31.6253C50.9179 29.211 51.1893 26.7999 51.4639 24.3856C52.0675 19.0748 52.6679 13.7639 53.2779 8.45628C53.412 7.29703 52.7541 6.36452 51.6683 6.21443C50.6049 6.06433 49.6532 6.81481 49.5127 7.94851C49.2987 9.70495 49.1103 11.4614 48.9123 13.221C48.4652 17.1395 48.0149 21.0611 47.5678 24.9796C47.3219 27.1225 47.0601 29.2653 46.8333 31.4082C46.7056 32.577 47.5678 33.5031 48.7271 33.5095ZM10.8902 27.0554C10.871 26.9181 10.8391 26.669 10.7944 26.4199C9.68622 20.1701 8.57806 13.9204 7.46991 7.67067C7.23039 6.31343 7.00365 4.95298 6.74817 3.59893C6.54698 2.53868 5.75498 1.91913 4.72667 1.97981C3.78777 2.0341 3.04049 2.73987 2.97661 3.69154C2.95426 4.03325 3.02771 4.38773 3.08839 4.72944C4.19654 10.9983 5.31108 17.2672 6.42243 23.5361C6.65556 24.855 6.8823 26.174 7.1282 27.4929C7.31662 28.5052 8.19165 29.1567 9.19122 29.0641C10.1684 28.9683 10.8966 28.1572 10.8902 27.0554ZM32.0058 16.8106C32.0058 16.3635 32.0058 15.9164 32.0058 15.4693C32.0058 11.9915 32.0122 8.51057 32.0026 5.03282C31.9994 3.60851 30.837 2.73668 29.5404 3.14864C28.6717 3.42328 28.2278 4.10031 28.2278 5.17653C28.2246 12.3492 28.2278 19.5219 28.2278 26.6945C28.2278 27.3747 28.2119 28.055 28.2374 28.7352C28.2757 29.7316 29.0486 30.4757 30.045 30.5108C31.185 30.5491 32.0026 29.7411 32.0058 28.534C32.0122 24.6219 32.0058 20.7162 32.0058 16.8106Z" fill="white"></path>
  </g>
  <defs>
    <clipPath id="clip0_15772_9050">
      <rect width="60" height="60" fill="white"></rect>
    </clipPath>
  </defs>
</svg>
