<?xml version="1.0" encoding="UTF-8"?>
<svg xmlns="http://www.w3.org/2000/svg" width="60" height="60" viewBox="0 0 60 60" fill="none">
  <g clip-path="url(#clip0_15772_9034)">
    <path d="M3.61792 60.0001C2.74451 59.2203 2.7913 58.4716 3.89865 58.0661C6.22254 57.2083 8.56203 56.3661 10.9639 55.6954C14.1768 54.8064 17.4521 54.1046 20.7118 53.3404C21.1017 53.2468 21.2576 53.1064 21.2888 52.7009C21.3512 51.8899 21.4916 51.0789 21.6164 50.2522C21.5384 50.2834 21.4604 50.2834 21.4292 50.3302C20.2906 51.6871 17.7172 51.7495 16.6099 49.5504C15.6897 47.71 14.863 45.8228 14.052 43.9356C12.8979 41.2686 11.6969 38.6016 10.6988 35.8722C9.95012 33.8447 9.49782 31.6923 8.92075 29.6024C8.54643 28.2299 8.20331 26.8574 7.82899 25.4849C7.75101 25.2042 7.59504 24.9078 7.40788 24.6739C5.20877 22.0225 2.99405 19.3866 0.77934 16.7508C0.670164 16.6104 0.545392 16.4857 0.451812 16.3453C0.171074 15.9086 0.23346 15.4875 0.607778 15.1288C0.950903 14.8012 1.52798 14.8012 1.8711 15.1756C2.339 15.6747 2.7601 16.2049 3.19681 16.7352C5.13078 19.0435 7.08035 21.3518 8.99873 23.6757C9.26387 23.9876 9.46663 24.3931 9.5758 24.783C10.418 27.8712 11.1511 30.9905 12.0869 34.063C12.6327 35.8566 13.4126 37.5878 14.1612 39.319C15.3777 42.2044 16.641 45.0586 17.9044 47.9284C18.0447 48.2403 18.2007 48.5678 18.4035 48.8486C18.7466 49.3476 19.2457 49.5192 19.7136 49.3476C20.1659 49.1761 20.4466 48.677 20.3062 48.0843C20.0723 47.0705 19.7916 46.0568 19.4796 45.0586C18.2007 40.9099 17.4521 36.6832 17.5768 32.3162C17.5924 31.7703 17.686 31.2244 17.8108 30.7097C18.1227 29.4308 19.0117 28.6666 20.3374 28.7602C21.3668 28.8226 22.3962 29.1033 23.3944 29.384C24.2366 29.618 25.032 29.9923 25.8586 30.273C27.044 30.663 28.0265 30.2262 28.6504 29.0409C27.3403 28.5106 26.0302 27.9803 24.7201 27.4501C23.4723 26.951 22.2246 26.4519 21.0081 25.9216C20.7118 25.7968 20.431 25.5473 20.2127 25.2977C19.8383 24.8766 19.5108 24.4087 19.1989 23.9408C18.0759 22.272 16.4851 21.3518 14.5355 21.0399C13.8493 20.9307 13.4593 20.5876 13.163 19.9481C10.418 13.959 7.65743 7.98554 4.89683 1.99646C4.81885 1.8249 4.72527 1.63774 4.66289 1.46618C4.50692 0.967089 4.67848 0.592772 5.13078 0.343227C5.55189 0.109278 6.03538 0.249647 6.30053 0.655158C6.4097 0.811124 6.48768 0.998282 6.56567 1.16984C8.7024 5.78643 10.8391 10.4186 12.9603 15.0352C13.0538 15.2224 13.1474 15.4251 13.1942 15.5499C14.1456 14.3645 15.0658 13.1324 16.0796 11.9939C16.5163 11.4948 16.797 10.9957 16.9998 10.3562C18.0915 6.72222 20.0099 3.6653 23.5035 1.93408C26.7944 0.296437 30.2257 -0.265039 33.7661 1.16984C36.1991 2.15243 37.9616 3.93044 39.3808 6.09836C39.5524 6.3791 39.8331 6.61305 40.1295 6.78461C43.8571 8.98372 45.9938 12.1498 46.0406 16.5637C46.0406 17.016 45.947 17.4683 46.0094 17.9362C46.103 17.7646 46.1965 17.5774 46.2745 17.4059C48.77 11.9939 51.2654 6.58185 53.7609 1.15425C53.8389 0.998282 53.9012 0.82672 53.9948 0.686351C54.26 0.28084 54.7435 0.124875 55.1646 0.358823C55.6169 0.592772 55.804 0.967089 55.6481 1.48178C55.6013 1.65334 55.5233 1.8093 55.4453 1.96527C52.6535 8.01674 49.8617 14.0682 47.0699 20.1197C46.8672 20.5408 46.6488 20.9151 46.1342 20.9775C43.5763 21.2894 41.7827 22.7399 40.4726 24.8454C40.0359 25.5473 39.4432 25.9372 38.679 26.2335C36.4799 27.0757 34.312 27.9803 32.144 28.8693C31.9881 28.9317 31.8321 29.0097 31.6761 29.0877C32.222 30.2418 33.267 30.6941 34.4367 30.3042C35.6533 29.8987 36.8386 29.384 38.0707 29.0565C38.8974 28.8382 39.802 28.7914 40.6442 28.8693C41.5488 28.9473 42.2194 29.5556 42.391 30.4446C42.6093 31.5987 42.7809 32.7841 42.7497 33.9694C42.6249 38.1805 41.8295 42.2668 40.4726 46.2439C40.2698 46.8522 40.1295 47.4761 40.0047 48.1155C39.8799 48.7238 40.1295 49.1917 40.5818 49.3788C41.0653 49.5816 41.6111 49.3944 41.9231 48.8486C42.2818 48.2247 42.5937 47.5852 42.8745 46.9146C44.5745 42.9374 46.3525 38.9759 47.9278 34.952C48.6764 33.0336 49.0507 30.9593 49.5966 28.9473C49.9709 27.5592 50.314 26.1711 50.704 24.783C50.8131 24.4243 50.9847 24.05 51.2342 23.7693C53.5269 21.0087 55.8196 18.2793 58.1279 15.5343C58.8142 14.7077 59.36 14.7233 59.9995 15.5655C59.9995 15.7526 59.9995 15.9554 59.9995 16.1425C59.8591 16.3297 59.7344 16.5169 59.5784 16.704C57.4885 19.1995 55.4141 21.6949 53.3086 24.1592C52.7939 24.7674 52.4196 25.3913 52.248 26.1867C52.0297 27.2161 51.7333 28.2143 51.4526 29.2281C50.8755 31.3492 50.4856 33.5327 49.6902 35.5603C47.9434 39.9585 46.0094 44.2788 44.1222 48.6302C43.9038 49.1449 43.6387 49.6596 43.3112 50.0963C42.2194 51.578 40.2543 51.7339 38.9129 50.4862C38.835 50.4238 38.757 50.377 38.6166 50.2678C38.7414 51.1724 38.8818 51.9991 38.9441 52.8257C38.9753 53.2 39.1469 53.3092 39.4744 53.3871C42.7653 54.167 46.0718 54.8688 49.3159 55.7578C51.6709 56.3973 53.9792 57.2395 56.2563 58.0817C57.4105 58.5028 57.4729 59.2359 56.5839 60.0313C56.3499 60.0313 56.116 60.0313 55.882 60.0313C54.7902 59.5634 53.7141 59.0019 52.5911 58.6432C47.8966 57.1147 43.0772 56.0698 38.2579 55.0248C37.5093 54.8688 37.3065 54.6505 37.2129 53.9174C37.1349 53.2624 37.0414 52.6073 36.9634 51.9523C36.8386 51.0633 36.7138 50.1743 36.5735 49.1605C32.2064 52.5761 27.9018 52.4514 23.6283 49.0825C23.5191 49.8311 23.4412 50.4394 23.3476 51.0321C23.2696 51.6403 23.176 52.2642 23.098 52.8881C22.8329 55.0248 22.9889 54.8064 20.8989 55.2743C16.0796 56.3349 11.2602 57.3799 6.59686 59.0019C5.80143 59.2827 5.0528 59.7038 4.28857 60.0625C4.08581 60.0001 3.85186 60.0001 3.61792 60.0001ZM44.0442 17.1407C44.0754 16.8444 44.1222 16.6104 44.1222 16.3921C44.2314 13.1168 41.8295 9.5296 38.6478 8.1883C36.8854 7.43966 35.0138 7.20572 33.1266 7.19012C32.3468 7.19012 31.8945 6.8314 31.8945 6.25433C31.8945 5.66166 32.3468 5.33413 33.1266 5.33413C33.2202 5.33413 33.3138 5.33413 33.423 5.34972C34.4679 5.42771 35.4973 5.49009 36.6203 5.58367C35.4349 4.21118 34.0624 3.21299 32.3624 2.69831C27.4651 1.18544 21.8191 3.83686 19.62 8.67179C19.5576 8.81216 19.5108 8.96813 19.5108 8.96813C21.1641 8.25069 22.8641 7.40847 24.6265 6.78461C26.0302 6.28552 27.5119 6.05157 28.9779 5.72404C29.477 5.61487 29.8513 5.86441 30.0073 6.3635C30.1477 6.8158 29.9293 7.2993 29.4926 7.47086C29.3211 7.54884 29.1183 7.56444 28.9311 7.61123C27.8862 7.86077 26.8412 8.03233 25.8118 8.34427C20.8053 9.84154 16.9062 12.7425 14.4575 17.4527C14.13 18.0765 14.6291 19.1527 15.3153 19.3242C16.9998 19.7454 18.575 20.3692 19.7448 21.7417C19.7604 21.7573 19.8072 21.7573 19.8695 21.7729C22.9733 18.5444 26.9192 16.9224 31.2394 16.0958C35.5597 15.2379 39.8019 15.5499 44.0442 17.1407ZM30.1321 30.273C30.0073 30.4134 29.9449 30.4914 29.8669 30.585C28.588 32.1914 26.888 32.6749 24.9852 31.9731C24.3302 31.7391 23.6907 31.4428 23.02 31.24C22.209 30.9905 21.3824 30.7565 20.5402 30.6006C19.8539 30.4914 19.6044 30.7097 19.5108 31.3804C19.4172 32.1758 19.3393 32.9712 19.3549 33.7667C19.386 36.8704 19.9943 39.9117 20.6962 42.9219C20.7741 43.2494 20.9145 43.6081 21.1173 43.8732C22.5054 45.698 24.1274 47.2733 26.1082 48.4742C28.4788 49.9247 30.9119 50.2522 33.4541 48.9109C35.7156 47.7256 37.5404 46.0412 39.1157 44.0448C39.2249 43.9044 39.3029 43.7017 39.3497 43.5145C39.7864 41.3934 40.2542 39.2567 40.613 37.1199C40.9249 35.2951 41.0341 33.4547 40.7533 31.5987C40.613 30.6318 40.3478 30.4134 39.3964 30.6162C38.5542 30.8033 37.712 31.0841 36.8854 31.3492C36.0588 31.6143 35.2478 32.0199 34.4055 32.1758C32.6119 32.5345 31.2082 31.8015 30.1321 30.273ZM21.0393 23.2858C21.3512 23.9096 21.8035 24.284 22.4742 24.5491C24.9072 25.4849 27.2935 26.4987 29.7266 27.4501C29.9761 27.5436 30.3348 27.528 30.6 27.4345C32.9707 26.4987 35.3101 25.5005 37.6808 24.5959C38.4918 24.284 38.9753 23.7381 39.3964 23.0206C39.1001 22.7087 38.835 22.3656 38.523 22.0848C37.8212 21.4454 37.1037 20.8059 36.3863 20.1977C35.8248 19.7142 35.6845 19.2151 36.0588 18.7472C36.4175 18.2949 36.9634 18.2793 37.556 18.7316C37.6184 18.7784 37.6808 18.8252 37.7432 18.8719C38.7258 19.7454 39.7084 20.6344 40.6442 21.4766C41.2056 21.0711 41.7515 20.5876 42.3598 20.2444C42.9681 19.9013 43.6543 19.683 44.325 19.4178C37.712 15.7214 25.8586 17.5618 21.0393 23.2858Z" fill="white"></path>
    <path d="M30.1474 46.8836C29.6328 46.7276 29.1337 46.6184 28.6814 46.4001C27.4804 45.823 26.529 44.934 25.6868 43.9358C25.2501 43.4211 25.3905 42.7505 26.0299 42.4854C27.1841 42.0175 28.3382 41.5652 29.5392 41.2532C30.0851 41.1129 30.7557 41.222 31.3172 41.378C32.2686 41.6431 33.1888 42.0175 34.0934 42.4074C34.8888 42.7349 35.0604 43.4679 34.4521 44.0294C33.5631 44.856 32.6117 45.6359 31.6291 46.3377C31.2236 46.6496 30.6465 46.712 30.1474 46.8836ZM28.1043 43.6863C29.7419 45.2927 30.5218 45.3551 32.097 43.6707C30.7713 42.9065 29.4456 42.9221 28.1043 43.6863Z" fill="white"></path>
    <path d="M30.4285 40.2234C29.3991 40.1922 28.5569 39.7867 27.8862 39.0381C27.5119 38.6326 27.5275 38.0867 27.8862 37.728C28.2294 37.3848 28.7285 37.3692 29.1496 37.6968C30.3193 38.5858 30.5689 38.5858 31.7074 37.65C32.1129 37.3225 32.6276 37.3225 32.9707 37.6656C33.3294 38.0087 33.3762 38.5234 33.0331 38.9289C32.3625 39.7555 31.4735 40.1922 30.4285 40.2234Z" fill="white"></path>
  </g>
  <defs>
    <clipPath id="clip0_15772_9034">
      <rect width="60" height="60" fill="white"></rect>
    </clipPath>
  </defs>
</svg>
