<?xml version="1.0" encoding="UTF-8"?>
<svg xmlns="http://www.w3.org/2000/svg" width="60" height="60" viewBox="0 0 60 60" fill="none">
  <g clip-path="url(#clip0_15772_9066)">
    <path d="M45.1473 60C44.7345 59.7126 44.5809 59.3198 44.5521 58.8152C44.4529 56.9949 44.0657 55.264 43.2114 53.613C42.4658 52.1727 41.7938 50.6653 41.3395 49.1133C40.7251 47.0119 40.9459 44.8244 41.2371 42.6815C41.5987 40.0277 42.1074 37.393 42.4818 34.7392C42.6226 33.746 42.5522 32.7241 42.6034 31.7149C42.6162 31.4371 42.6418 31.073 42.8146 30.907C43.0194 30.7122 43.4322 30.5461 43.6721 30.626C43.9409 30.7154 44.2577 31.0603 44.3089 31.3413C44.5489 32.6379 44.7313 33.9472 44.8785 35.2598C44.9745 36.106 45.3233 36.8054 45.8 37.4888C46.0176 37.7986 46.1744 38.2138 46.1904 38.5874C46.2576 40.0628 46.28 41.5414 46.2736 43.02C46.2672 44.6647 46.6576 46.2168 47.3167 47.7049C48.3023 49.9244 49.2942 52.1376 50.3374 54.3315C50.7598 55.2225 51.3325 56.0432 51.8221 56.9055C52.1197 57.4292 52.4237 57.9498 52.6605 58.4991C52.99 59.2655 52.9133 59.4763 52.2829 60C52.0877 60 51.8925 60 51.6973 60C51.4861 59.7126 51.2525 59.438 51.0638 59.1346C50.9006 58.8727 50.8238 58.5534 50.651 58.3011C48.8527 55.7111 47.6975 52.7954 46.3984 49.9532C45.5888 48.184 44.7793 46.3956 44.6225 44.4348C44.4881 42.7518 44.4657 41.0528 44.4881 39.3634C44.4977 38.6513 44.2033 38.1723 43.7457 37.6166C43.2178 40.7047 42.6834 43.7098 42.757 46.7788C42.7922 48.2574 43.1346 49.6562 43.8417 50.9687C44.1809 51.601 44.4337 52.2813 44.7857 52.9072C45.8128 54.7339 46.1552 56.7299 46.3184 58.7769C46.36 59.323 46.2128 59.7254 45.7328 59.9968C45.5376 60 45.3425 60 45.1473 60Z" fill="white"></path>
    <path d="M8.06995 59.9999C7.43959 59.4762 7.36279 59.2686 7.68917 58.4989C7.92596 57.9496 8.21394 57.4163 8.52753 56.9054C10.6554 53.4723 12.2777 49.7934 13.6089 45.9995C14.028 44.8051 14.0056 43.4415 14.0888 42.1481C14.1688 40.9281 14.1144 39.6986 14.1496 38.4755C14.1592 38.2009 14.22 37.8624 14.3896 37.6739C15.2216 36.751 15.4584 35.6492 15.5576 34.4549C15.6439 33.4138 15.8359 32.3791 16.0215 31.3476C16.1239 30.7695 16.5047 30.4981 17.0007 30.5747C17.5318 30.6578 17.7878 31.0218 17.7494 31.5232C17.5766 33.8832 18.095 36.1538 18.5174 38.45C19.1446 41.883 19.4581 45.3448 19.0486 48.8321C18.9718 49.4932 18.7542 50.1606 18.4886 50.777C17.9926 51.9362 17.4487 53.0795 16.8631 54.1941C16.1079 55.628 15.9127 57.18 15.7975 58.7544C15.7591 59.2686 15.6471 59.7029 15.1992 59.9967C15.004 59.9967 14.8088 59.9967 14.6136 59.9967C14.4184 59.6869 14.0408 59.3708 14.0536 59.0706C14.1336 57.2056 14.332 55.3565 15.1992 53.6448C15.7879 52.4855 16.3447 51.3103 16.8823 50.1255C17.0807 49.688 17.2439 49.2153 17.3079 48.7459C17.7014 45.7887 17.4231 42.8506 17.0071 39.9222C16.9015 39.1749 16.7479 38.434 16.5975 37.6005C15.8839 38.5777 15.8935 38.5777 15.8775 39.6092C15.8583 40.8707 15.8839 42.1417 15.7751 43.3967C15.6791 44.5113 15.5863 45.6705 15.2088 46.7052C13.7752 50.6269 12.1369 54.4623 9.87786 58.0007C9.65067 58.3584 9.50028 58.7672 9.28269 59.1313C9.1003 59.4346 8.86351 59.7093 8.65232 59.9967C8.46033 59.9999 8.26514 59.9999 8.06995 59.9999Z" fill="white"></path>
    <path d="M51.4986 20.7643C51.4539 21.5595 51.4314 22.3578 51.3643 23.1498C51.2587 24.44 51.3355 25.6983 51.6874 26.9597C52.417 29.5688 52.273 32.2418 52.0778 34.8988C52.0074 35.8728 52.1386 36.6361 52.7946 37.4345C54.7209 39.7817 55.5528 42.5729 55.7928 45.5652C55.9368 47.3664 55.9592 49.193 56.292 50.9591C56.7144 53.2041 57.3895 55.4045 57.9687 57.6208C58.0327 57.8603 58.1703 58.0806 58.2887 58.3042C58.5671 58.8439 58.4839 59.3165 58.0551 59.5784C57.6135 59.8498 57.0727 59.7061 56.788 59.1537C56.5128 58.6235 56.2696 58.0615 56.1224 57.4866C55.5432 55.232 54.9097 52.9806 54.4905 50.694C54.1801 49.0014 54.1673 47.2514 54.0361 45.5269C53.8025 42.4355 52.7018 39.7147 50.5675 37.4377C50.2443 37.0928 50.1899 36.7159 50.2283 36.2593C50.4683 33.5064 50.7467 30.7377 50.1419 28.0104C49.7803 26.3881 49.4572 24.7913 49.6171 23.1147C49.8571 20.6238 49.7739 18.136 49.2492 15.6866C48.5964 12.6304 46.7245 10.6791 43.6719 9.91266C42.0496 9.50389 40.4048 9.19412 38.8017 8.72467C38.053 8.50432 37.3234 8.09874 36.693 7.63248C35.5347 6.783 34.9043 5.61417 34.9267 4.13238C34.9395 3.19987 34.8915 2.26736 34.8819 1.33165C34.8755 0.641852 35.1987 0.242661 35.7395 0.23308C36.2771 0.2235 36.6066 0.619497 36.6194 1.30291C36.6354 2.21626 36.6706 3.12961 36.6578 4.04615C36.6418 5.20221 37.2082 5.98782 38.1682 6.55307C39.4353 7.30355 40.8656 7.52071 42.2735 7.82409C43.1855 8.02209 44.1166 8.17858 44.9902 8.49154C48.5516 9.76895 50.5419 12.3653 51.0891 16.057C51.3195 17.6091 51.4091 19.1835 51.5626 20.7483C51.5434 20.7579 51.521 20.7611 51.4986 20.7643Z" fill="white"></path>
    <path d="M25.4166 2.89381C25.4166 3.26426 25.407 3.63152 25.4198 4.00197C25.4806 5.85102 24.5815 7.1412 23.0552 8.06413C21.5736 8.95832 19.8905 9.22338 18.2362 9.57467C17.4747 9.73754 16.6971 9.86209 15.9707 10.1208C13.1005 11.1395 11.4878 13.2089 10.9982 16.1885C10.6046 18.5804 10.531 20.982 10.7486 23.3963C10.8606 24.6641 10.771 25.916 10.4126 27.1487C9.66068 29.7418 9.79827 32.3956 10.0383 35.0271C10.1567 36.3205 9.99026 37.3168 9.07511 38.3452C7.2864 40.3571 6.54404 42.8544 6.32326 45.5146C6.16006 47.4691 6.11527 49.4491 5.76648 51.3716C5.36331 53.5815 4.70414 55.7467 4.11217 57.9183C3.97138 58.4324 3.70579 58.9274 3.41461 59.3777C3.16182 59.7673 2.72345 59.8216 2.32347 59.5853C1.92989 59.3522 1.8115 58.9945 1.95549 58.5314C2.48346 56.8325 2.97623 55.1176 3.517 53.4218C4.21457 51.247 4.29456 48.9956 4.45775 46.7473C4.65934 43.9785 5.06572 41.2545 6.59204 38.8402C6.96642 38.2494 7.3344 37.6394 7.80158 37.1284C8.26235 36.6207 8.34235 36.1065 8.32635 35.4486C8.27515 33.2355 8.28795 31.0224 8.32315 28.8093C8.33275 28.2345 8.47674 27.65 8.64313 27.0976C9.06551 25.7116 9.09431 24.3128 8.97271 22.8853C8.75193 20.3145 8.84792 17.7373 9.42709 15.2272C10.2974 11.4589 12.6685 9.07967 16.4667 8.18229C17.6986 7.89168 18.953 7.69688 20.1689 7.35517C20.9625 7.13162 21.7464 6.78991 22.46 6.37156C23.276 5.89253 23.7015 5.11651 23.6983 4.1329C23.6951 3.18123 23.7175 2.22636 23.7367 1.27469C23.7495 0.6296 24.0759 0.246377 24.5943 0.243183C25.1159 0.23999 25.4614 0.632794 25.4742 1.26511C25.4838 1.80801 25.4774 2.3541 25.4774 2.897C25.4518 2.89381 25.4358 2.89381 25.4166 2.89381Z" fill="white"></path>
    <path d="M28.648 47.5101C28.6928 48.5831 28.1264 49.1004 27.4513 48.7939C26.7601 48.4777 26.5649 46.3636 27.1857 45.9165C27.7008 45.5429 28.4208 45.8303 28.536 46.4754C28.6064 46.8746 28.6224 47.2833 28.648 47.5101Z" fill="white"></path>
    <path d="M32.6991 24.8041C32.6 25.2799 32.5264 25.8452 32.3568 26.3785C32.2192 26.8096 31.848 27.0268 31.384 26.9246C30.9296 26.8256 30.6577 26.4998 30.7057 26.0368C30.7601 25.5003 30.872 24.9606 31.0256 24.44C31.1536 23.9993 31.512 23.779 31.976 23.862C32.4304 23.945 32.6672 24.258 32.6991 24.8041Z" fill="white"></path>
    <path d="M30.245 32.3375C29.5219 32.3375 29.0899 31.8936 29.1955 31.3794C29.3075 30.8334 29.4771 30.2873 29.6947 29.7731C29.8866 29.3132 30.3122 29.1759 30.7698 29.3516C31.1986 29.5144 31.4066 29.8753 31.2946 30.3352C31.1762 30.8238 31.0578 31.3252 30.837 31.7722C30.6994 32.0405 30.373 32.2193 30.245 32.3375Z" fill="white"></path>
    <path d="M30.9137 10.2544C30.7825 10.1267 30.4465 9.94144 30.3314 9.66361C30.1362 9.18458 30.0434 8.65445 29.9698 8.14029C29.9026 7.65488 30.1522 7.30678 30.6385 7.19501C31.1025 7.08643 31.4737 7.28124 31.6113 7.72194C31.7809 8.25526 31.9057 8.81094 31.9729 9.36661C32.0337 9.85841 31.5889 10.2704 30.9137 10.2544Z" fill="white"></path>
    <path d="M28.6453 41.3721C28.6165 41.6787 28.5878 42.0683 28.5398 42.4515C28.4758 42.9529 28.0982 43.2946 27.647 43.2754C27.1702 43.2563 26.799 42.8539 26.8118 42.3301C26.8214 41.9437 26.8726 41.5573 26.9046 41.1677C26.959 40.4939 27.311 40.117 27.855 40.1522C28.3926 40.1905 28.6805 40.5993 28.6453 41.3721Z" fill="white"></path>
    <path d="M29.6149 53.3671C29.6053 53.9898 29.3525 54.29 28.9013 54.3762C28.4694 54.4593 28.1046 54.2677 27.9702 53.8525C27.8006 53.3192 27.679 52.7667 27.6022 52.211C27.5414 51.7767 27.7782 51.4605 28.2134 51.3456C28.6677 51.2274 29.0613 51.3807 29.2181 51.8182C29.4133 52.3643 29.5093 52.9423 29.6149 53.3671Z" fill="white"></path>
    <path d="M29.7232 35.5917C29.5792 36.109 29.464 36.703 29.2464 37.2587C29.0769 37.6994 28.6513 37.8144 28.2161 37.6738C27.8001 37.5397 27.5729 37.198 27.6465 36.7701C27.7361 36.2368 27.8769 35.7066 28.0497 35.1957C28.2033 34.7454 28.5841 34.5857 29.0353 34.6815C29.4736 34.7709 29.6688 35.0935 29.7232 35.5917Z" fill="white"></path>
    <path d="M30.9873 13.7735C30.9681 13.1124 31.2337 12.7547 31.7233 12.6972C32.2256 12.6398 32.6 12.924 32.6992 13.4765C32.776 13.914 32.8272 14.3579 32.856 14.8018C32.8912 15.3543 32.5712 15.7343 32.0816 15.7758C31.5825 15.8173 31.2113 15.5107 31.1281 14.9646C31.0641 14.5495 31.0289 14.1216 30.9873 13.7735Z" fill="white"></path>
    <path d="M33.1694 19.7072C33.147 20.1128 33.1566 20.4098 33.1054 20.6908C33.0223 21.1571 32.7087 21.3902 32.2383 21.3774C31.7935 21.3646 31.4767 21.1251 31.4479 20.6812C31.4063 20.1032 31.4127 19.5188 31.4671 18.9439C31.5055 18.5288 31.8255 18.302 32.2351 18.2861C32.6639 18.2701 33.0063 18.4617 33.1022 18.9024C33.1726 19.1962 33.1566 19.5124 33.1694 19.7072Z" fill="white"></path>
    <path d="M31.0993 58.2883C31.0737 58.7769 30.6449 59.1409 30.1489 59.0994C29.6241 59.0547 29.0706 58.2052 29.1282 57.5314C29.1698 57.0715 29.5825 56.7107 30.0433 56.7394C30.5713 56.7713 31.1345 57.5985 31.0993 58.2883Z" fill="white"></path>
    <path d="M29.6723 4.82869C28.9811 4.83508 28.7059 4.11334 28.6259 3.31496C28.5779 2.84232 28.9875 2.46867 29.4547 2.4559C30.1746 2.43674 30.4786 3.24789 30.5298 4.00476C30.565 4.48698 30.1554 4.83827 29.6723 4.82869Z" fill="white"></path>
  </g>
  <defs>
    <clipPath id="clip0_15772_9066">
      <rect width="60" height="60" fill="white"></rect>
    </clipPath>
  </defs>
</svg>
