<?xml version="1.0" encoding="UTF-8"?>
<svg xmlns="http://www.w3.org/2000/svg" width="60" height="60" viewBox="0 0 60 60" fill="none">
  <path d="M12.3126 32.1248C12.1563 30.6404 12.7813 29.5467 13.8751 28.5779C13.6563 28.4686 13.4688 28.3904 13.2969 28.2811C12.5626 27.7811 11.7501 27.3592 11.1251 26.7342C9.92194 25.5311 9.96881 23.8436 11.1251 22.5936C12.0469 21.5936 13.2501 21.0154 14.5157 20.6092C15.7501 20.2186 17.0313 19.9373 18.3126 19.5936C18.2188 19.3279 18.0782 19.0311 18.0157 18.7186C17.7969 17.6092 18.2344 16.7342 19.0626 16.0311C20.1407 15.1092 21.4532 14.6248 22.8126 14.3436C27.7813 13.2811 32.7501 13.2342 37.6876 14.5311C38.6719 14.7811 39.6407 15.2498 40.4844 15.8123C42.4532 17.1561 42.4219 19.3436 40.4376 20.6561C39.6251 21.2029 38.6719 21.5467 37.8751 21.9529C38.2344 22.5154 38.6563 23.1561 39.0782 23.7811C39.1251 23.8592 39.2188 23.9217 39.3126 23.9529C40.6407 24.4217 41.7813 25.1873 42.6563 26.3436C44.0626 23.5311 46.5938 22.5467 49.4063 21.9998C49.9219 21.9061 50.1876 22.2186 50.3438 22.6717C51.2188 25.2967 51.5157 27.8904 49.8438 30.3748C50.2657 30.4842 50.6719 30.5623 51.0626 30.6873C53.4219 31.4686 54.8751 33.2342 56.0001 35.3279C56.2032 35.7029 56.1563 36.1092 55.7969 36.3904C53.8126 37.8592 51.6876 38.9373 49.1094 38.5936C48.7813 38.5467 48.4688 38.4686 48.0626 38.3904C48.5001 40.3436 48.0001 42.0936 46.9063 43.7498C47.1251 43.8748 47.3126 43.9686 47.4688 44.0936C48.1563 44.6248 48.9219 45.0936 49.5157 45.7186C51.2188 47.4998 51.1876 49.6561 49.4844 51.4529C48.2813 52.7342 46.7501 53.5154 45.1563 54.1561C41.9532 55.4373 38.5938 56.0779 35.1719 56.4686C31.4844 56.8904 27.7813 56.9686 24.0782 56.7186C19.5313 56.4061 15.0469 55.7811 10.8126 53.9842C9.57819 53.4529 8.35944 52.7498 7.32819 51.9061C4.92194 49.9373 4.92194 47.3592 7.23444 45.2498C7.57819 44.9373 7.95319 44.6561 8.37506 44.3279C8.20319 44.2342 8.04694 44.1717 7.92194 44.0779C7.04694 43.5154 6.07819 43.0467 5.29694 42.3592C2.84381 40.2186 2.93756 37.2498 5.43756 35.1717C7.26569 33.6404 9.45319 32.8904 11.7032 32.2967C11.8594 32.2342 12.0626 32.1873 12.3126 32.1248ZM45.9376 44.9373C45.7813 45.1717 45.7344 45.2498 45.6719 45.3279C44.8594 46.2342 44.6251 46.2811 43.6876 45.4998C42.7657 44.7342 41.9063 43.9061 40.9688 43.0623C39.4532 44.0936 37.6876 44.7811 35.8438 45.2811C32.8751 46.0936 29.8438 46.4686 26.7969 46.5936C21.4219 46.8279 16.0938 46.6404 10.8594 45.1873C10.6251 45.1248 10.2969 45.1404 10.0938 45.2654C9.43756 45.6717 8.76569 46.0936 8.20319 46.6092C6.84381 47.8904 6.84381 49.2342 8.26569 50.4686C9.01569 51.1248 9.89069 51.6873 10.7969 52.1248C14.3438 53.8436 18.1876 54.5311 22.0626 54.9373C26.7344 55.4217 31.4063 55.3592 36.0469 54.7186C39.2188 54.2811 42.3282 53.5936 45.2657 52.2654C46.4063 51.7498 47.4844 51.1404 48.3438 50.2029C49.3594 49.1092 49.4219 47.9529 48.3907 46.8748C47.6876 46.1717 46.8126 45.6248 45.9376 44.9373ZM31.5001 37.6873C30.6876 37.6873 29.9376 37.6873 29.1719 37.6873C25.5782 37.7186 22.0001 37.5467 18.5157 36.6092C16.5313 36.0779 14.6094 35.3904 13.1407 33.8279C13.0469 33.7186 12.7813 33.7029 12.6251 33.7498C11.8751 33.9373 11.1094 34.1248 10.3751 34.3592C8.84381 34.8592 7.39069 35.4842 6.18756 36.5936C5.56256 37.1873 5.09381 37.8748 5.09381 38.7811C5.07819 39.9061 5.73444 40.6717 6.53131 41.3279C7.71881 42.3123 9.12506 42.9061 10.5626 43.3748C13.5626 44.3592 16.6719 44.7654 19.7969 44.9373C24.7188 45.1873 29.6094 45.0467 34.4376 43.9529C36.3282 43.5311 38.1563 42.9373 39.7969 41.8748C39.9688 41.7654 40.1719 41.4998 40.1563 41.3279C40.0782 40.6561 39.9063 39.9998 39.7813 39.3279C39.3282 39.4998 38.8594 39.7186 38.3594 39.8592C36.2969 40.4373 34.3594 39.9686 32.4532 39.1873C31.7657 38.9061 31.2501 38.5623 31.5001 37.6873ZM54.3282 35.5467C52.8907 32.9686 50.5938 31.4217 47.7969 32.2498C47.3438 32.3904 46.9219 32.3123 46.7032 31.8279C46.5001 31.3436 46.6719 30.9373 47.1094 30.6717C49.5782 29.2186 49.9844 26.4529 48.9688 23.7186C47.9844 23.9061 47.0313 24.2498 46.1719 24.7811C44.7813 25.6404 44.0157 26.9061 43.8751 28.5154C43.8282 29.0623 43.8282 29.6092 43.1407 29.7342C42.6563 29.8279 42.3594 29.5154 42.1094 28.7186C42.0938 28.6873 42.0938 28.6404 42.0782 28.6092C41.2969 26.2654 38.3438 24.5623 36.0001 25.1092C36.0001 25.5779 35.9844 26.0779 36.0001 26.5467C36.1251 28.8904 37.1407 30.5936 39.4219 31.4217C39.9844 31.6248 40.2344 32.0311 40.0938 32.4842C39.9376 32.9998 39.5313 33.1092 39.0313 33.0936C36.1876 32.9998 33.8907 34.8436 33.3751 37.6561C33.7501 37.7811 34.1251 37.9373 34.5157 38.0467C36.9063 38.7654 39.0313 38.4686 40.6407 36.3592C40.9376 35.9842 41.3282 35.8748 41.7188 36.1092C42.1407 36.3748 42.1876 36.7967 41.9844 37.2498C40.9844 39.5936 41.6251 42.0623 44.6251 44.0779C45.0313 43.4998 45.4844 42.9373 45.8438 42.3123C46.8907 40.5154 46.8907 38.7342 45.7188 36.9842C45.4532 36.5936 45.2501 36.1717 45.6876 35.7811C46.1251 35.3904 46.5157 35.6561 46.9532 35.9061C47.6094 36.2967 48.2813 36.7498 49.0157 36.9373C51.0313 37.4529 52.7032 36.5779 54.3282 35.5467ZM36.8282 23.4686C36.0782 22.9373 35.5001 22.4217 34.5782 22.5623C32.0626 22.9529 29.5313 22.9842 27.0001 22.7967C24.9063 22.6404 22.7969 22.3904 20.8594 21.5311C20.2032 21.2498 19.5938 21.2342 18.9376 21.3279C18.5157 21.3904 18.0938 21.4529 17.6719 21.5311C15.9532 21.8748 14.2344 22.2498 12.7813 23.3123C11.5001 24.2498 11.4688 25.3904 12.8282 26.2029C13.8282 26.8123 14.9532 27.2811 16.0782 27.5936C19.5626 28.5623 23.1563 28.6404 26.7501 28.5154C29.1251 28.4373 31.4844 28.1873 33.7813 27.4998C34.1094 27.4061 34.2344 27.2811 34.2344 26.9061C34.2188 26.0779 34.2657 25.2342 34.3126 24.3904C34.3594 23.7342 34.6719 23.4842 35.3438 23.4686C35.7813 23.4686 36.2344 23.4686 36.8282 23.4686ZM34.5469 28.9373C34.2501 29.0311 33.8907 29.1561 33.5001 29.2342C27.9219 30.5311 22.3282 30.4529 16.7501 29.3748C15.9844 29.2342 15.4532 29.3592 14.8907 29.8279C13.5782 30.9217 13.5157 32.2342 14.9063 33.2342C15.7657 33.8592 16.7813 34.3748 17.7969 34.7029C22.4063 36.1717 27.1407 36.2186 31.9063 35.9061C32.0469 35.8904 32.2344 35.7654 32.2969 35.6561C33.2032 33.8436 34.4844 32.4529 36.3594 31.8436C35.7813 30.8904 35.1876 29.9529 34.5469 28.9373ZM30.7813 21.3123C31.8594 21.1873 33.9532 20.9998 36.0313 20.6717C37.3126 20.4686 38.5782 20.0623 39.6251 19.2186C40.3751 18.6092 40.4219 17.9529 39.6876 17.3748C39.1563 16.9686 38.5469 16.6248 37.9219 16.3904C36.1876 15.7186 34.3438 15.4842 32.4844 15.3748C29.4063 15.2029 26.3282 15.2186 23.2969 15.9061C22.1251 16.1717 20.9532 16.5154 20.0157 17.3436C19.3126 17.9686 19.2969 18.6561 20.0313 19.2186C20.5938 19.6404 21.2501 19.9998 21.9219 20.2342C24.4532 21.1404 27.1094 21.2186 30.7813 21.3123Z" fill="white"></path>
  <path d="M47.2504 12.9217C48.0629 12.2342 48.9848 11.8748 50.0317 11.9373C51.3442 12.0311 52.5473 12.4686 53.6723 13.0936C54.6098 13.6092 55.5161 14.1873 56.3911 14.7967C56.6567 14.9842 56.9223 15.4217 56.8911 15.6873C56.8442 15.9373 56.4223 16.2342 56.1098 16.328C55.1411 16.6405 54.2661 17.1405 53.5942 17.8748C52.3442 19.2342 50.8598 19.3905 49.2036 18.9061C47.3911 18.3748 45.7661 17.4373 44.2661 16.328C44.1254 16.2186 43.9692 16.0311 43.9536 15.8748C43.8286 14.703 43.1411 13.828 42.3442 13.0936C41.0317 11.8748 40.8911 10.453 41.3442 8.87485C41.8754 7.01547 42.8754 5.39047 44.0473 3.87485C44.2036 3.67172 44.6098 3.49985 44.8286 3.56235C45.0629 3.62485 45.3598 3.93735 45.4067 4.18735C45.5942 5.2186 46.1567 6.04672 46.8754 6.7186C48.3129 8.0311 48.4223 9.56235 47.8598 11.2655C47.7036 11.8123 47.4692 12.3592 47.2504 12.9217ZM44.9536 13.7498C45.7192 12.5467 46.4379 11.3123 46.6411 9.89047C46.7036 9.45297 46.6567 8.89047 46.4067 8.56235C45.7973 7.70297 45.0629 6.92172 44.2504 5.98422C43.7348 7.2186 43.1879 8.37485 42.7504 9.57797C42.5161 10.2342 42.5473 10.953 43.0786 11.5623C43.7036 12.2342 44.2973 12.9686 44.9536 13.7498ZM46.4692 15.828C47.6723 16.5623 48.9067 17.2498 50.3286 17.4998C50.9223 17.6092 51.4848 17.5311 51.9692 17.1248C52.6879 16.5155 53.4379 15.9217 54.2036 15.3123C52.9692 14.578 51.6879 13.8436 50.2036 13.6092C49.5942 13.5155 49.0629 13.6717 48.5942 14.0936C47.9223 14.6873 47.2036 15.2342 46.4692 15.828Z" fill="white"></path>
  <path d="M13.3911 13.8281C11.6723 12.2031 11.9536 10.375 12.7817 8.59376C13.4223 7.20314 14.2817 5.92189 15.0942 4.62501C15.2192 4.42189 15.6254 4.25001 15.8598 4.26564C16.0786 4.29689 16.4067 4.59376 16.4536 4.81251C16.6723 5.90626 17.2973 6.76564 18.0629 7.46876C19.4223 8.73439 19.5473 10.2031 19.0317 11.8594C18.4692 13.625 17.5161 15.1719 16.4067 16.6406C16.2817 16.8125 16.0629 16.9844 15.8598 17.0313C14.8598 17.25 14.0317 17.7813 13.3754 18.5C11.9379 20.0938 10.2192 20.2344 8.42232 19.4844C6.81295 18.8125 5.31295 17.9063 3.7817 17.0625C3.5942 16.9531 3.4067 16.5781 3.45357 16.3906C3.54732 16.1094 3.79732 15.75 4.04732 15.6875C5.25045 15.3438 6.23482 14.6875 7.10982 13.8125C8.1567 12.75 9.4067 12.5625 10.7817 12.9219C11.6098 13.1563 12.4379 13.5 13.3911 13.8281ZM16.0942 14.6406C16.6098 13.4219 17.1723 12.2813 17.5629 11.0781C17.7348 10.5625 17.6879 9.79689 17.4223 9.35939C16.8754 8.46876 16.0942 7.73439 15.3911 6.89064C14.6411 8.12501 13.9223 9.37501 13.7661 10.8438C13.7192 11.2813 13.7817 11.8281 14.0317 12.1563C14.6098 13 15.3286 13.7344 16.0942 14.6406ZM13.9848 15.9375C12.7817 15.4219 11.6254 14.8906 10.4223 14.4531C9.8442 14.2344 9.17232 14.1719 8.62545 14.5625C7.7817 15.1719 7.00045 15.8594 6.1567 16.5469C7.3442 17.2656 8.54732 17.9375 9.92232 18.2031C10.5473 18.3281 11.1567 18.2969 11.6879 17.8438C12.3754 17.2344 13.1098 16.6563 13.9848 15.9375Z" fill="white"></path>
</svg>
