<?xml version="1.0" encoding="UTF-8"?>
<svg xmlns="http://www.w3.org/2000/svg" width="60" height="60" viewBox="0 0 60 60" fill="none">
  <g clip-path="url(#clip0_15772_9054)">
    <path d="M0.109375 20.1096C0.562146 19.2353 0.921241 19.1416 1.79556 19.6256C4.02819 20.8902 6.26082 22.1861 8.49345 23.4351C8.93061 23.6849 9.1648 24.0128 9.27409 24.5124C10.6636 30.8824 12.0844 37.2369 13.4896 43.6069C13.8799 45.4023 13.8018 47.2134 13.6769 49.0245C13.4427 52.35 13.2241 55.6756 13.0056 59.0011C12.9743 59.4851 12.787 59.891 12.303 59.9379C12.0063 59.9691 11.616 59.7974 11.413 59.5788C11.2413 59.407 11.2413 59.0323 11.2569 58.7513C11.3818 56.706 11.5379 54.6764 11.6472 52.6311C11.7721 50.1955 12.0219 47.7599 11.897 45.3399C11.8034 43.4507 11.2413 41.5928 10.8354 39.7349C9.82054 35.0511 8.75887 30.3828 7.74404 25.7146C7.61913 25.1682 7.38494 24.8403 6.90095 24.5749C4.90251 23.4664 2.93529 22.3422 0.968079 21.1869C0.64021 20.9995 0.406018 20.6404 0.124988 20.3594C0.109375 20.2657 0.109375 20.1877 0.109375 20.1096Z" fill="white"></path>
    <path d="M0.109375 6.08908C0.530921 5.35528 0.733887 5.27721 1.63943 5.41773C5.71437 6.07347 9.7737 6.76043 13.8643 7.35372C14.5668 7.46301 15.3162 7.24443 16.05 7.13514C18.1734 6.77604 20.2967 6.38572 22.4357 5.9954C22.545 5.97979 22.6543 5.94856 22.8104 5.91734C22.8104 4.38728 22.826 2.85723 22.7948 1.34279C22.7792 0.796338 22.9353 0.390405 23.3881 0.109375C23.5754 0.109375 23.7784 0.109375 23.9657 0.109375C24.4029 0.374793 24.5746 0.7495 24.5746 1.26472C24.5434 2.98213 24.5746 4.69954 24.559 6.40133C24.559 7.18197 24.3404 7.44739 23.5754 7.58791C20.609 8.11874 17.6426 8.69642 14.6605 9.1648C13.9579 9.27409 13.1929 9.07112 12.4747 8.96183C8.72764 8.36855 4.98057 7.74404 1.2335 7.15075C0.671436 7.05707 0.296729 6.83849 0.109375 6.30766C0.109375 6.22959 0.109375 6.15153 0.109375 6.08908Z" fill="white"></path>
    <path d="M36.8305 0.109375C37.2989 0.421631 37.4238 0.85879 37.4082 1.40524C37.377 2.90407 37.3926 4.38728 37.3926 5.91734C38.7978 6.16714 40.1561 6.41695 41.4988 6.66675C41.6861 6.69798 41.8891 6.7292 42.0764 6.79165C42.5448 6.94778 42.7946 7.35372 42.6853 7.83771C42.5604 8.32171 42.217 8.58713 41.7486 8.50906C39.9219 8.21242 38.1108 7.86894 36.2997 7.52546C35.8782 7.44739 35.6284 7.13514 35.6284 6.68236C35.6284 4.79322 35.5971 2.90407 35.644 1.01492C35.6596 0.702662 36.0343 0.406018 36.2373 0.109375C36.4558 0.109375 36.6432 0.109375 36.8305 0.109375Z" fill="white"></path>
    <path d="M16.1277 22.5763C16.6585 24.403 17.1737 26.1829 17.7046 27.9471C17.767 28.1657 17.9231 28.353 18.0637 28.5404C19.2658 29.9768 20.4836 31.3975 21.6858 32.8183C22.1074 33.3335 22.123 33.88 21.7014 34.2078C21.3111 34.5045 20.8584 34.5357 20.5461 34.161C19.0941 32.4904 17.6577 30.7886 16.237 29.0712C16.1121 28.9151 16.0808 28.6809 16.0184 28.4779C15.4875 26.7137 14.9723 24.9494 14.4415 23.1228C13.9575 23.3569 13.7233 23.7004 13.7858 24.1688C14.0043 25.9174 14.2073 27.6817 14.4883 29.4303C14.5508 29.8363 14.8474 30.2422 15.1285 30.5857C16.2213 31.8815 17.3455 33.1462 18.454 34.4264C18.4852 34.4733 18.532 34.5201 18.5633 34.5513C19.0473 35.129 19.0785 35.6598 18.6413 36.0345C18.2042 36.3936 17.7202 36.3 17.2362 35.7379C16.6117 35.0197 15.9872 34.3015 15.3626 33.5833C15.1909 33.3804 15.0036 33.1774 14.7225 33.0369C14.8006 33.2086 14.8786 33.396 14.9723 33.5677C15.9247 35.3944 16.8927 37.2211 17.8139 39.0634C17.9544 39.3601 18.0012 39.7972 17.9075 40.0939C17.8295 40.3124 17.4235 40.5622 17.1893 40.5466C16.8927 40.5154 16.518 40.2968 16.3619 40.047C15.7217 38.9385 15.1441 37.7832 14.5508 36.6434C12.2401 32.225 12.6772 33.3491 12.2713 28.275C12.1776 27.0103 12.084 25.7457 11.9903 24.4811C11.8654 23.0447 12.5992 21.8737 13.9575 21.3897C14.7537 21.1087 15.5344 20.8433 16.3463 20.6091C17.7202 20.1875 18.9536 20.8121 19.422 22.1704C19.8904 23.5287 20.3431 24.9026 20.7959 26.2609C20.8584 26.4639 20.952 26.6669 21.0925 26.8074C22.3728 28.0096 23.653 29.1961 24.9333 30.3983C24.9645 30.4295 25.027 30.4452 25.1519 30.5232C25.1519 29.5396 25.1206 28.6185 25.1519 27.6973C25.2143 25.7301 27.2284 24.5123 28.8989 25.4491C29.3673 25.7145 29.7264 26.1829 30.148 26.5576C30.632 25.6832 31.4126 25.1368 32.5367 25.168C33.7701 25.1993 34.8474 26.1204 34.9567 27.3538C35.0348 28.1813 35.0035 29.0244 35.0035 29.8675C35.0035 30.0704 35.0035 30.2734 35.0035 30.6481C35.7842 29.9143 36.4087 29.243 37.1269 28.6965C38.7662 27.4631 39.7811 25.8706 40.2182 23.8722C40.3431 23.2633 40.5929 22.6856 40.7959 22.0923C41.2487 20.8589 42.4509 20.2344 43.7155 20.6091C44.5898 20.8589 45.4641 21.1399 46.3228 21.4522C47.5094 21.8737 48.2588 22.951 48.1808 24.2C48.0246 26.8074 47.8529 29.4147 47.5719 32.0064C47.4782 32.8339 47.1503 33.6614 46.7756 34.4264C45.3236 37.3148 43.7936 40.1563 42.326 43.0291C42.1854 43.3101 42.123 43.7004 42.1854 44.0127C43.2627 48.837 44.3556 53.6614 45.4485 58.4857C45.4641 58.5638 45.4797 58.6419 45.4954 58.7199C45.6359 59.4225 45.4173 59.8909 44.8708 60.0158C44.34 60.1407 43.9185 59.7972 43.7623 59.0946C42.7475 54.5825 41.7951 50.0392 40.6554 45.5583C40.2494 43.919 40.4368 42.6075 41.2643 41.1555C42.7319 38.595 44.0277 35.9252 45.4017 33.3023C45.4485 33.2086 45.4954 33.0993 45.4641 32.9276C44.6835 33.8175 43.9028 34.7231 43.1222 35.613C42.4821 36.3468 42.0293 36.4717 41.5609 36.0658C41.1082 35.6754 41.1706 35.1602 41.7795 34.4576C42.888 33.1774 44.0434 31.9284 45.105 30.6013C45.4641 30.1485 45.7452 29.5552 45.8388 28.9932C46.1043 27.4631 46.2604 25.9174 46.4477 24.3718C46.5102 23.8722 46.3384 23.4506 45.8076 23.1852C45.7139 23.4662 45.6046 23.7316 45.5266 23.9971C45.0894 25.5115 44.6523 27.0259 44.1995 28.5248C44.1058 28.837 43.9653 29.1493 43.7623 29.3991C42.4821 30.9448 41.1706 32.4748 39.8747 34.0049C39.4532 34.5045 38.9068 34.5982 38.5008 34.2547C38.0793 33.8956 38.0793 33.3804 38.5164 32.8651C39.6562 31.5068 40.8271 30.1797 41.9512 28.8058C42.2479 28.4467 42.4977 27.9939 42.6382 27.5568C43.1534 25.9487 43.6062 24.3249 44.1058 22.6388C43.8716 22.5607 43.653 22.4826 43.4345 22.4046C42.9192 22.2016 42.6226 22.4046 42.4665 22.9042C42.0137 24.3093 41.5453 25.7145 41.0613 27.104C40.9364 27.4787 40.7022 27.8534 40.4212 28.1188C38.6413 29.805 36.8302 31.4756 35.0348 33.1462C34.6913 33.4584 34.3634 33.7707 33.8482 33.5521C33.3174 33.3335 33.2549 32.8807 33.2705 32.3968C33.2705 30.9135 33.2705 29.4303 33.2705 27.9471C33.2705 27.4319 33.1144 27.0416 32.568 26.9791C32.0059 26.9167 31.8342 27.307 31.6936 27.791C30.7256 31.179 31.0535 34.6294 31.0535 38.0642C31.0535 38.5794 31.2721 39.079 31.4126 39.5943C31.4907 39.8597 31.6312 40.0939 31.7561 40.3437C33.1769 43.232 33.1456 43.232 33.2549 46.4014C33.3954 50.5076 33.5828 54.6138 33.7545 58.7199C33.7545 58.8292 33.7701 58.9541 33.7701 59.0634C33.7545 59.6411 33.4267 60.0314 32.9114 60.047C32.4274 60.0626 32.0371 59.7348 31.9903 59.1727C31.9122 58.2203 31.8966 57.2679 31.8498 56.3156C31.678 52.2094 31.5219 48.1032 31.3345 43.9971C31.3189 43.5911 31.1316 43.1852 30.9598 42.7949C30.7256 42.2484 30.429 41.7176 30.1011 41.0619C29.6327 42.2797 28.8833 43.2476 28.8521 44.5904C28.7272 49.1649 28.493 53.7395 28.29 58.314C28.2744 58.5794 28.2588 58.8605 28.2432 59.1259C28.1808 59.7192 27.8217 60.0782 27.3221 60.047C26.8068 60.0314 26.4477 59.6099 26.4633 59.001C26.4946 57.9861 26.5414 56.9713 26.5882 55.9565C26.76 51.8503 26.9473 47.7441 27.1347 43.638C27.1503 43.2789 27.2284 42.9042 27.3845 42.5763C29.4922 38.2047 29.1644 39.5162 29.2424 34.5513C29.2737 32.2562 29.0863 30.008 28.5398 27.7754C28.3993 27.1821 28.1183 26.8854 27.6655 26.9635C27.1191 27.0416 26.963 27.4319 26.963 27.9315C26.963 29.4147 26.963 30.8979 26.963 32.3811C26.963 32.8651 26.9161 33.3335 26.3853 33.5365C25.8701 33.7395 25.5422 33.4428 25.1987 33.1306C23.4188 31.46 21.6234 29.8206 19.8591 28.1345C19.5625 27.8534 19.3283 27.4631 19.1878 27.0884C18.7194 25.8082 18.3135 24.5123 17.8763 23.2164C17.5484 22.2172 17.4391 22.1704 16.4555 22.4982C16.3619 22.4826 16.2838 22.5139 16.1277 22.5763Z" fill="white"></path>
    <path d="M46.276 46.7137C46.2291 44.5435 46.838 42.467 47.2908 40.3905C48.4306 35.1758 49.6015 29.9768 50.7256 24.7777C50.8661 24.1064 51.1628 23.6848 51.7717 23.357C53.9419 22.1704 56.0652 20.9214 58.2198 19.6879C58.3135 19.6255 58.4227 19.5787 58.532 19.5162C59.0473 19.2508 59.5625 19.3601 59.8123 19.7972C60.0621 20.2344 59.9372 20.7496 59.4376 21.0463C58.7038 21.4834 57.9544 21.905 57.2049 22.3265C55.7842 23.1384 54.3478 23.9346 52.9427 24.7621C52.7085 24.9026 52.4743 25.1837 52.4274 25.4491C51.0379 31.6161 49.6796 37.7988 48.3213 43.9659C47.9309 45.7145 48.0871 47.4944 48.1964 49.2586C48.4149 52.4436 48.6335 55.6286 48.8365 58.8136C48.8833 59.5162 48.5555 59.9534 47.9934 59.9846C47.4626 60.0158 47.1035 59.6411 47.0566 58.9542C46.8224 55.6755 46.6195 52.3812 46.4009 49.1025C46.3697 48.3062 46.3384 47.51 46.276 46.7137Z" fill="white"></path>
    <path d="M19.9999 43.263C19.7345 44.4495 19.5003 45.5112 19.2661 46.5729C18.345 50.679 17.4082 54.7696 16.4871 58.8758C16.4558 59.0163 16.4246 59.1412 16.3934 59.2661C16.2373 59.7813 15.8001 60.0623 15.3473 59.9687C14.8477 59.8594 14.5511 59.391 14.676 58.8445C14.9414 57.6424 15.2068 56.4558 15.4878 55.2536C16.3778 51.3192 17.2677 47.4004 18.1732 43.4659C18.2513 43.1537 18.4387 42.7946 18.6885 42.6072C18.8914 42.4667 19.313 42.4979 19.5472 42.6072C19.7501 42.7477 19.875 43.0756 19.9999 43.263Z" fill="white"></path>
    <path d="M58.9537 5.35547C59.5314 5.35547 59.8905 5.66772 59.9373 6.13611C59.9841 6.63572 59.6563 7.02604 59.0786 7.11972C57.6578 7.35391 56.2371 7.5881 54.8163 7.82229C52.006 8.27506 49.2113 8.74345 46.401 9.16499C46.0419 9.21183 45.5423 9.14938 45.2925 8.9308C44.746 8.47803 45.0739 7.61933 45.8233 7.49442C47.1972 7.24462 48.5868 7.02604 49.9763 6.80746C52.8179 6.33908 55.6594 5.8863 58.5009 5.41792C58.657 5.38669 58.8288 5.37108 58.9537 5.35547Z" fill="white"></path>
    <path d="M22.8574 15.1291C23.2009 16.8934 23.6537 18.4546 24.6061 19.813C24.8403 20.1408 25.012 20.4843 24.809 20.8902C24.5124 21.5148 23.6693 21.6084 23.2946 20.9683C22.6701 19.8598 22.1236 18.6888 21.624 17.5335C21.3742 16.9714 21.2962 16.3469 21.1088 15.6756C20.9215 15.9098 20.7809 16.1127 20.6248 16.2845C20.2813 16.6436 19.8754 16.6904 19.4695 16.3938C19.0791 16.1127 18.9855 15.6912 19.2353 15.3009C19.813 14.3953 20.4375 13.5366 21.0776 12.6779C21.3586 12.3032 21.7958 12.272 22.1861 12.5218C23.0292 13.0838 23.8567 13.6615 24.6685 14.2704C25.0745 14.5671 25.1369 15.0823 24.8871 15.457C24.6217 15.8629 24.1065 15.9566 23.6537 15.6756C23.4351 15.5194 23.2165 15.3633 22.8574 15.1291Z" fill="white"></path>
    <path d="M37.3455 15.1132C37.002 15.3474 36.7678 15.5192 36.518 15.6597C36.0808 15.9251 35.5968 15.847 35.3158 15.4723C35.0192 15.082 35.0972 14.5512 35.5188 14.2389C36.315 13.6456 37.1269 13.068 37.9544 12.5215C38.4228 12.2093 38.8755 12.3185 39.219 12.7869C39.7655 13.5363 40.3119 14.3014 40.8271 15.082C41.1706 15.5816 41.0926 16.0812 40.6866 16.3779C40.2807 16.6745 39.7811 16.5808 39.4064 16.1125C39.2971 15.9719 39.1878 15.847 39.0473 15.6441C38.8755 16.2842 38.7975 16.8931 38.5633 17.4395C38.0793 18.5793 37.5797 19.719 36.9864 20.8119C36.6429 21.452 36.0808 21.5613 35.6281 21.2178C35.1753 20.89 35.1753 20.3904 35.5968 19.7815C36.5648 18.4075 37.002 16.8463 37.3455 15.1132Z" fill="white"></path>
  </g>
  <defs>
    <clipPath id="clip0_15772_9054">
      <rect width="60" height="60" fill="white"></rect>
    </clipPath>
  </defs>
</svg>
