<?xml version="1.0" encoding="UTF-8"?>
<svg xmlns="http://www.w3.org/2000/svg" width="60" height="60" viewBox="0 0 60 60" fill="none">
  <path d="M18.0002 43.1407C17.1877 41.2345 16.3283 39.3907 15.6252 37.4845C15.1877 36.2813 15.047 34.9845 14.7033 33.7501C14.5783 33.2813 14.3127 32.8282 14.0314 32.4376C12.2502 29.9688 12.1252 26.8282 13.8127 24.3438C14.2345 23.7188 14.7814 23.1563 15.3595 22.6876C17.1252 21.2501 18.9377 19.8751 20.7502 18.4845C21.047 18.2657 21.172 18.0313 21.1564 17.6563C21.1252 16.8907 21.1877 16.1407 21.1252 15.3751C21.1095 15.0626 20.9845 14.6876 20.7814 14.4376C19.1877 12.5157 19.1564 12.1251 20.5783 10.1094C20.8595 9.71882 21.0314 9.35945 20.9533 8.8282C20.8439 8.00008 21.2658 7.40633 22.1095 7.09383C23.9377 6.42195 25.7658 5.78133 27.5939 5.10945C27.8127 5.03133 28.047 4.87508 28.1877 4.68758C30.047 2.28133 33.2814 2.28133 35.1095 4.75008C37.1252 7.48445 39.0939 10.2345 41.1095 12.9688C41.3595 13.3126 41.672 13.6251 42.0002 13.8907C43.1408 14.8282 44.3127 15.7501 45.4689 16.672C46.2814 17.3282 46.4533 17.9532 46.0627 18.9376C45.7189 19.8126 45.3752 20.672 45.0314 21.547C45.0158 21.5782 45.0158 21.6251 44.9845 21.7501C46.5783 22.2657 46.6564 23.7032 46.8908 25.047C47.3283 27.422 47.7502 29.797 48.1877 32.172C48.2502 32.5001 48.3595 32.8126 48.4845 33.1095C50.7345 38.2345 53.0158 43.3595 55.2658 48.5001C56.6252 51.6095 55.4377 55.047 52.4533 56.4376C51.6408 56.8126 50.6877 57.0782 49.8127 57.0313C46.0783 56.8438 42.3439 56.6407 38.6252 56.2345C35.547 55.9063 32.6408 54.8438 29.8752 53.4532C29.547 53.2813 29.3127 53.2657 28.9845 53.4845C27.8439 54.2188 26.5783 54.5626 25.2502 54.7345C25.0002 54.7657 24.7189 54.8595 24.5158 55.0001C23.5314 55.6563 22.4689 56.047 21.2814 56.047C19.3283 56.047 17.3908 56.0626 15.4377 56.047C14.2502 56.047 13.422 55.3907 13.0314 54.2813C12.9533 54.0782 12.7345 53.8438 12.5158 53.7657C10.7658 53.1407 9.12516 52.297 7.60953 51.2032C6.00016 50.047 5.35953 48.2032 5.93766 46.4063C6.56266 44.422 8.20328 43.172 10.172 43.1563C12.6877 43.1407 15.2033 43.1563 17.7189 43.1563C17.8439 43.1563 17.9845 43.1407 18.0002 43.1407ZM44.5627 34.5313C44.8283 36.6251 45.0002 38.6407 45.3283 40.6407C45.7658 43.297 46.797 45.7501 48.0627 48.1251C48.2814 48.547 48.3908 48.9688 48.047 49.3751C47.7033 49.7813 47.2814 49.7501 46.8127 49.5938C43.7189 48.547 40.6408 47.4532 37.5002 46.5157C36.0158 46.0782 35.1095 45.3282 34.4533 43.9063C33.2814 41.3907 31.1408 39.9845 28.4064 39.5626C28.1252 39.5157 27.7502 39.6251 27.5002 39.797C25.7658 41.0313 24.0627 42.2813 22.3439 43.547C22.0158 43.7813 21.6877 44.0313 21.3127 44.3126C21.5158 44.5626 21.6877 44.8126 21.8908 45.0001C23.047 46.1251 24.1408 47.3282 25.3908 48.3595C29.7814 51.9688 34.8283 54.0782 40.4845 54.6251C43.4689 54.922 46.4689 55.0313 49.4689 55.1876C52.7502 55.3595 54.8439 52.2813 53.5314 49.2501C52.6877 47.3282 51.8283 45.4063 50.9845 43.4845C49.6564 40.4688 48.3283 37.4688 47.0002 34.4688C46.922 34.297 46.6564 34.047 46.5158 34.0782C45.8908 34.172 45.2658 34.3595 44.5627 34.5313ZM27.2345 29.172C26.8908 30.5782 26.5158 32.0001 26.2189 33.4376C26.047 34.2501 26.297 35.0157 26.797 35.7032C27.2033 36.2501 27.5939 36.8126 28.0314 37.3282C28.1564 37.4845 28.3908 37.5938 28.5939 37.6563C29.5002 37.9376 30.4533 38.0938 31.3283 38.4688C33.7658 39.4845 35.4064 41.3282 36.5158 43.6876C36.6408 43.9688 36.922 44.2813 37.2033 44.3751C39.7814 45.2657 42.3595 46.1095 44.9377 46.9688C45.0939 47.0157 45.2502 47.047 45.4377 47.0938C45.1252 46.3126 44.8439 45.6095 44.5627 44.9063C43.4064 41.8907 43.0783 38.7032 42.8439 35.5157C42.7814 34.6251 42.4533 34.0938 41.7189 33.6251C39.8127 32.4376 39.3595 30.6251 40.4064 28.6407C41.0783 27.3751 41.5939 26.0626 41.7189 24.6251C41.7658 23.9532 41.9064 23.297 42.0158 22.547C41.1252 21.8751 40.047 21.2032 39.1877 20.3282C38.3127 19.4376 37.6408 18.3438 36.8752 17.3438C36.0627 18.0626 35.8595 18.9532 36.1877 20.047C37.422 24.0626 34.7189 28.3751 30.547 28.9845C29.4845 29.1563 28.3752 29.1251 27.2345 29.172ZM44.3439 18.1876C43.2189 17.2813 42.0939 16.422 41.0158 15.5001C40.4533 15.0313 39.922 14.5001 39.4845 13.9063C37.547 11.297 35.6564 8.65632 33.7345 6.03132C32.3908 4.18757 30.3439 4.3907 29.3752 6.46883C28.1095 9.17195 26.8595 11.8594 25.5939 14.5626C23.672 18.6563 24.0939 18.2657 20.547 21.0001C20.5314 21.0157 20.5158 21.0157 20.5002 21.0313C20.4064 21.2188 20.2345 21.422 20.2189 21.6095C20.1877 22.797 20.1877 23.9845 20.2189 25.172C20.2502 26.7188 21.3752 28.0001 22.9064 28.1407C23.7658 28.2188 24.6564 28.1563 25.5627 28.1563C25.8595 26.9688 26.1408 25.797 26.4377 24.6407C26.5783 24.0782 26.6408 23.4532 26.9377 22.9688C28.2345 20.9063 28.7189 18.672 28.6408 16.2813C28.6252 15.9845 28.7033 15.6563 28.8439 15.3907C29.7033 13.9063 30.5939 12.4376 31.4689 10.9845C31.9064 10.2657 32.5158 10.1876 33.1095 10.7657C35.4845 13.1563 38.0158 15.3907 39.8752 18.2501C40.6877 19.5001 42.0314 20.1095 43.1564 21.0938C43.5783 20.0782 43.9533 19.1563 44.3439 18.1876ZM23.5627 49.4376C22.3439 48.1095 21.0158 46.672 19.672 45.2345C19.5627 45.1251 19.3752 45.047 19.2189 45.047C16.1564 45.0313 13.0939 45.0157 10.0314 45.047C8.85953 45.0626 8.15641 45.8282 7.75016 46.8438C7.39078 47.7345 7.62516 48.797 8.35953 49.4063C9.84391 50.6251 11.547 51.4688 13.4064 52.0626C14.3752 50.2188 15.9689 49.6876 17.922 49.7657C18.9689 49.8126 20.0158 49.672 21.0627 49.6095C21.9689 49.547 22.8595 49.4845 23.5627 49.4376ZM32.5627 12.8438C32.0002 13.7813 31.5002 14.672 30.9533 15.5157C30.6408 16.0157 30.5002 16.5001 30.5002 17.0938C30.5158 19.1095 30.1564 21.0626 29.1408 22.8282C28.3439 24.2032 28.1877 25.7188 27.7189 27.2345C28.4533 27.2345 29.1252 27.2657 29.797 27.2345C33.0783 27.0313 35.3595 23.7188 34.3752 20.5782C34.0627 19.5782 34.0314 18.5626 34.4689 17.6095C34.7345 17.0001 35.1408 16.4532 35.5158 15.8282C35.5002 15.8126 35.4377 15.7345 35.3752 15.6563C34.4533 14.7501 33.5314 13.8282 32.5627 12.8438ZM25.0783 30.0626C24.3908 30.0626 23.797 30.0782 23.1877 30.0626C22.1877 30.047 21.2658 29.7501 20.4533 29.172C19.1095 28.2032 18.3752 26.8751 18.3439 25.2032C18.3283 24.422 18.3439 23.6407 18.3439 22.7032C17.547 23.3282 16.8595 23.8438 16.2189 24.3907C14.3283 26.047 13.9377 28.8438 15.297 30.9688C15.8283 31.7813 16.6564 32.4532 16.547 33.5313C16.672 33.5626 16.7033 33.5938 16.7502 33.5782C19.2658 33.0938 21.7814 32.6095 24.297 32.1095C24.4377 32.0782 24.5939 31.922 24.6408 31.7813C24.8127 31.2501 24.922 30.7032 25.0783 30.0626ZM20.2502 42.7501C22.297 41.2501 24.3283 39.7813 26.3752 38.2813C25.3908 36.9845 24.3127 35.7813 24.3127 34.0313C21.8439 34.5157 19.422 35.0001 17.0158 35.4688C17.3283 37.4376 19.0002 41.1876 20.2502 42.7501ZM46.2502 32.172C46.1877 31.7813 46.1408 31.4845 46.0783 31.172C45.6564 28.8282 45.2189 26.5001 44.797 24.1563C44.7345 23.797 44.5939 23.5157 44.172 23.5157C43.797 23.5157 43.5939 23.7345 43.5939 24.1095C43.5783 26.1251 42.9377 27.9688 41.9533 29.7032C41.6408 30.2501 41.547 30.9063 41.9689 31.3438C42.5002 31.8907 43.2189 32.2813 43.8595 32.7345C43.8752 32.7501 43.9377 32.7345 43.9689 32.7188C44.7189 32.5626 45.4533 32.3751 46.2502 32.172ZM18.547 54.172C19.4689 54.172 20.3752 54.2188 21.2814 54.1563C21.8283 54.1251 22.4064 53.9845 22.9064 53.7657C23.8283 53.3595 24.1564 52.7813 23.9689 52.1251C23.7814 51.5001 23.2658 51.297 22.2189 51.3751C20.6095 51.5001 19.0002 51.6407 17.3908 51.6563C16.2033 51.672 15.4377 52.1563 14.9533 53.2032C14.672 53.8282 14.8752 54.1876 15.5627 54.1876C16.5627 54.172 17.547 54.172 18.547 54.172ZM22.7658 8.85945C23.1877 9.71883 22.7345 10.3282 22.2658 10.9532C22.0783 11.2032 21.9377 11.4845 21.7345 11.7188C21.4064 12.0782 21.4533 12.3595 21.7658 12.7188C22.4377 13.4532 23.2345 14.1563 23.047 15.3282C23.047 15.3282 23.1095 15.3595 23.1564 15.3751C24.3752 12.7657 25.5939 10.1563 26.8752 7.40633C25.422 7.90633 24.1408 8.37508 22.7658 8.85945ZM27.5314 52.1876C26.797 51.7032 26.1877 51.297 25.5783 50.8751C25.7189 51.5001 25.8439 52.0626 25.9845 52.7188C26.4533 52.5626 26.922 52.3907 27.5314 52.1876Z" fill="white"></path>
</svg>
